<?xml version="1.0" encoding="UTF-8" standalone="no"?>
<!-- Created with Inkscape (http://www.inkscape.org/) -->

<svg
   xmlns:dc="http://purl.org/dc/elements/1.1/"
   xmlns:cc="http://creativecommons.org/ns#"
   xmlns:rdf="http://www.w3.org/1999/02/22-rdf-syntax-ns#"
   xmlns:svg="http://www.w3.org/2000/svg"
   xmlns="http://www.w3.org/2000/svg"
   xmlns:xlink="http://www.w3.org/1999/xlink"
   xmlns:sodipodi="http://sodipodi.sourceforge.net/DTD/sodipodi-0.dtd"
   xmlns:inkscape="http://www.inkscape.org/namespaces/inkscape"
   version="1.0"
   width="96"
   height="96"
   id="svg2408"
   inkscape:version="0.48.1 r9760"
   sodipodi:docname="drive-harddisk.svg">
  <sodipodi:namedview
     pagecolor="#ffffff"
     bordercolor="#666666"
     borderopacity="1"
     objecttolerance="10"
     gridtolerance="10"
     guidetolerance="10"
     inkscape:pageopacity="0"
     inkscape:pageshadow="2"
     inkscape:window-width="1238"
     inkscape:window-height="792"
     id="namedview106"
     showgrid="false"
     inkscape:zoom="3.15625"
     inkscape:cx="48"
     inkscape:cy="50.851485"
     inkscape:window-x="227"
     inkscape:window-y="240"
     inkscape:window-maximized="0"
     inkscape:current-layer="svg2408" />
  <defs
     id="defs2410">
    <linearGradient
       id="linearGradient4327">
      <stop
         id="stop4329"
         style="stop-color:#f0f0f0;stop-opacity:1"
         offset="0" />
      <stop
         id="stop4331"
         style="stop-color:#b4b4b4;stop-opacity:1"
         offset="1" />
    </linearGradient>
    <linearGradient
       id="linearGradient4225">
      <stop
         id="stop4227"
         style="stop-color:#000000;stop-opacity:1"
         offset="0" />
      <stop
         id="stop4229"
         style="stop-color:#484848;stop-opacity:1"
         offset="1" />
    </linearGradient>
    <linearGradient
       id="linearGradient3322">
      <stop
         id="stop3324"
         style="stop-color:#7a7a7a;stop-opacity:1"
         offset="0" />
      <stop
         id="stop3326"
         style="stop-color:#f9f9f9;stop-opacity:1"
         offset="0.2032043" />
      <stop
         id="stop3328"
         style="stop-color:#c9c9c9;stop-opacity:1"
         offset="0.42969123" />
      <stop
         id="stop3330"
         style="stop-color:#dedede;stop-opacity:0"
         offset="1" />
    </linearGradient>
    <linearGradient
       id="linearGradient3448">
      <stop
         id="stop3450"
         style="stop-color:#000000;stop-opacity:1"
         offset="0" />
      <stop
         id="stop3452"
         style="stop-color:#000000;stop-opacity:0"
         offset="1" />
    </linearGradient>
    <linearGradient
       id="linearGradient3376">
      <stop
         id="stop3378"
         style="stop-color:#767676;stop-opacity:1"
         offset="0" />
      <stop
         id="stop3380"
         style="stop-color:#fdfdfd;stop-opacity:1"
         offset="1" />
    </linearGradient>
    <linearGradient
       id="linearGradient3366">
      <stop
         id="stop3368"
         style="stop-color:#c1ff97;stop-opacity:1"
         offset="0" />
      <stop
         id="stop3370"
         style="stop-color:#30c700;stop-opacity:1"
         offset="1" />
    </linearGradient>
    <linearGradient
       id="linearGradient3273">
      <stop
         id="stop3275"
         style="stop-color:#7a7a7a;stop-opacity:1"
         offset="0" />
      <stop
         id="stop3281"
         style="stop-color:#f9f9f9;stop-opacity:1"
         offset="0.14636412" />
      <stop
         id="stop3283"
         style="stop-color:#c9c9c9;stop-opacity:1"
         offset="0.37253973" />
      <stop
         id="stop3277"
         style="stop-color:#dedede;stop-opacity:0"
         offset="1" />
    </linearGradient>
    <linearGradient
       id="linearGradient3220">
      <stop
         id="stop3222"
         style="stop-color:#ffffff;stop-opacity:1"
         offset="0" />
      <stop
         id="stop3224"
         style="stop-color:#bfbfbf;stop-opacity:0"
         offset="1" />
    </linearGradient>
    <linearGradient
       id="linearGradient3173">
      <stop
         id="stop3175"
         style="stop-color:#e6e6e6;stop-opacity:1"
         offset="0" />
      <stop
         id="stop3189"
         style="stop-color:#c3c3c3;stop-opacity:1"
         offset="0.26003402" />
      <stop
         id="stop3187"
         style="stop-color:#b9b9b9;stop-opacity:1"
         offset="0.49180263" />
      <stop
         id="stop3191"
         style="stop-color:#c8c8c8;stop-opacity:1"
         offset="0.75914466" />
      <stop
         id="stop3177"
         style="stop-color:#e6e6e6;stop-opacity:1"
         offset="1" />
    </linearGradient>
    <linearGradient
       x1="45.447727"
       y1="92.539597"
       x2="45.447727"
       y2="7.0165396"
       id="ButtonShadow"
       gradientUnits="userSpaceOnUse"
       gradientTransform="scale(1.0058652,0.994169)">
      <stop
         id="stop3750"
         style="stop-color:#000000;stop-opacity:1"
         offset="0" />
      <stop
         id="stop3752"
         style="stop-color:#000000;stop-opacity:0.58823532"
         offset="1" />
    </linearGradient>
    <linearGradient
       id="linearGradient3737">
      <stop
         id="stop3739"
         style="stop-color:#ffffff;stop-opacity:1"
         offset="0" />
      <stop
         id="stop3741"
         style="stop-color:#ffffff;stop-opacity:0"
         offset="1" />
    </linearGradient>
    <filter
       x="-0.29508197"
       y="-0.46153846"
       width="1.5901639"
       height="1.9230769"
       color-interpolation-filters="sRGB"
       id="filter3179">
      <feGaussianBlur
         id="feGaussianBlur3181"
         stdDeviation="6.6964288" />
    </filter>
    <filter
       color-interpolation-filters="sRGB"
       id="filter3174">
      <feGaussianBlur
         id="feGaussianBlur3176"
         stdDeviation="1.71" />
    </filter>
    <linearGradient
       x1="36.357143"
       y1="6"
       x2="36.357143"
       y2="63.893143"
       id="linearGradient3188"
       xlink:href="#linearGradient3737"
       gradientUnits="userSpaceOnUse" />
    <linearGradient
       x1="-1.857143"
       y1="86.214287"
       x2="88"
       y2="8.6071424"
       id="linearGradient3179"
       xlink:href="#linearGradient3173"
       gradientUnits="userSpaceOnUse" />
    <linearGradient
       x1="6"
       y1="77.09375"
       x2="32"
       y2="77.09375"
       id="linearGradient3279"
       xlink:href="#linearGradient3322"
       gradientUnits="userSpaceOnUse" />
    <linearGradient
       x1="6"
       y1="77.09375"
       x2="32.030617"
       y2="77.09375"
       id="linearGradient3287"
       xlink:href="#linearGradient3273"
       gradientUnits="userSpaceOnUse"
       gradientTransform="matrix(-1,0,0,1,96.030615,0)" />
    <linearGradient
       x1="6"
       y1="75.5"
       x2="45.219246"
       y2="75.5"
       id="linearGradient3454"
       xlink:href="#linearGradient3448"
       gradientUnits="userSpaceOnUse"
       gradientTransform="matrix(-1,0,0,1,96,0)" />
    <linearGradient
       x1="48"
       y1="77.09375"
       x2="48"
       y2="90"
       id="linearGradient3460"
       xlink:href="#linearGradient3448"
       gradientUnits="userSpaceOnUse" />
    <linearGradient
       x1="41.041885"
       y1="72"
       x2="48"
       y2="19.160589"
       id="linearGradient3517"
       xlink:href="#linearGradient3737"
       gradientUnits="userSpaceOnUse" />
    <linearGradient
       x1="38.765545"
       y1="73"
       x2="38.765545"
       y2="-60.29591"
       id="linearGradient3527"
       xlink:href="#linearGradient3448"
       gradientUnits="userSpaceOnUse"
       gradientTransform="matrix(1.0277778,0,0,1.0499999,-0.3055556,-2.6499999)" />
    <linearGradient
       x1="44.324883"
       y1="12"
       x2="44.324883"
       y2="72.11245"
       id="linearGradient3547"
       xlink:href="#linearGradient4327"
       gradientUnits="userSpaceOnUse" />
    <linearGradient
       x1="18.742928"
       y1="8.046936"
       x2="109.1929"
       y2="68.516502"
       id="linearGradient3551"
       xlink:href="#linearGradient3220"
       gradientUnits="userSpaceOnUse"
       gradientTransform="matrix(1,0,0,-1,0,84)" />
    <linearGradient
       x1="15.999999"
       y1="85.0625"
       x2="20.178572"
       y2="85.0625"
       id="linearGradient3556"
       xlink:href="#linearGradient3376"
       gradientUnits="userSpaceOnUse" />
    <radialGradient
       cx="18.089285"
       cy="85.0625"
       r="2.0892856"
       fx="18.089285"
       fy="85.0625"
       id="radialGradient3558"
       xlink:href="#linearGradient3366"
       gradientUnits="userSpaceOnUse"
       gradientTransform="matrix(1,0,0,1.0042736,0,-0.3635233)" />
    <linearGradient
       x1="67.071426"
       y1="80"
       x2="67.071426"
       y2="88.011475"
       id="linearGradient4231"
       xlink:href="#linearGradient4225"
       gradientUnits="userSpaceOnUse"
       gradientTransform="translate(-2,0)" />
    <linearGradient
       x1="67.071426"
       y1="80"
       x2="67.071426"
       y2="88.011475"
       id="linearGradient4239"
       xlink:href="#linearGradient3737"
       gradientUnits="userSpaceOnUse" />
    <clipPath
       id="clipPath3306">
      <rect
         width="72"
         height="60"
         rx="4"
         ry="4"
         x="12"
         y="12"
         id="rect3308"
         style="fill:#ffffff;fill-opacity:1;fill-rule:nonzero;stroke:none" />
    </clipPath>
    <linearGradient
       x1="15.656256"
       y1="69.394279"
       x2="46.594883"
       y2="39.82095"
       id="linearGradient3540"
       xlink:href="#linearGradient3220"
       gradientUnits="userSpaceOnUse" />
    <filter
       x="-0.12267826"
       y="-0.17991199"
       width="1.2453564"
       height="1.3598239"
       color-interpolation-filters="sRGB"
       id="filter3642">
      <feGaussianBlur
         id="feGaussianBlur3644"
         stdDeviation="3.178304" />
    </filter>
    <linearGradient
       x1="45.447727"
       y1="92.539597"
       x2="45.447727"
       y2="7.0165396"
       id="ButtonShadow-0"
       gradientUnits="userSpaceOnUse"
       gradientTransform="matrix(1.0058652,0,0,0.994169,100,0)">
      <stop
         id="stop3750-8"
         style="stop-color:#000000;stop-opacity:1"
         offset="0" />
      <stop
         id="stop3752-5"
         style="stop-color:#000000;stop-opacity:0.58823532"
         offset="1" />
    </linearGradient>
    <linearGradient
       x1="32.251034"
       y1="6.1317081"
       x2="32.251034"
       y2="90.238609"
       id="linearGradient3780"
       xlink:href="#ButtonShadow-0"
       gradientUnits="userSpaceOnUse"
       gradientTransform="matrix(1.0238095,0,0,1.0119048,-1.1428571,-98.071429)" />
    <linearGradient
       x1="32.251034"
       y1="6.1317081"
       x2="32.251034"
       y2="90.238609"
       id="linearGradient3772"
       xlink:href="#ButtonShadow-0"
       gradientUnits="userSpaceOnUse"
       gradientTransform="matrix(1.0238095,0,0,1.0119048,-1.1428571,-98.071429)" />
    <linearGradient
       x1="32.251034"
       y1="6.1317081"
       x2="32.251034"
       y2="90.238609"
       id="linearGradient3725"
       xlink:href="#ButtonShadow-0"
       gradientUnits="userSpaceOnUse"
       gradientTransform="matrix(1.0238095,0,0,1.0119048,-1.1428571,-98.071429)" />
    <linearGradient
       x1="32.251034"
       y1="6.1317081"
       x2="32.251034"
       y2="90.238609"
       id="linearGradient3721"
       xlink:href="#ButtonShadow-0"
       gradientUnits="userSpaceOnUse"
       gradientTransform="translate(0,-97)" />
    <linearGradient
       x1="32.251034"
       y1="6.1317081"
       x2="32.251034"
       y2="90.238609"
       id="linearGradient2918"
       xlink:href="#ButtonShadow-0"
       gradientUnits="userSpaceOnUse"
       gradientTransform="matrix(1.0238095,0,0,1.0119048,-1.1428571,-98.071429)" />
    <linearGradient
       x1="32.251034"
       y1="6.1317081"
       x2="32.251034"
       y2="90.238609"
       id="linearGradient2918-4"
       xlink:href="#ButtonShadow-0-8"
       gradientUnits="userSpaceOnUse"
       gradientTransform="matrix(1.0238095,0,0,1.0119048,-1.1428571,-98.071429)" />
    <linearGradient
       x1="45.447727"
       y1="92.539597"
       x2="45.447727"
       y2="7.0165396"
       id="ButtonShadow-0-8"
       gradientUnits="userSpaceOnUse"
       gradientTransform="matrix(1.0058652,0,0,0.994169,100,0)">
      <stop
         id="stop3750-8-7"
         style="stop-color:#000000;stop-opacity:1"
         offset="0" />
      <stop
         id="stop3752-5-1"
         style="stop-color:#000000;stop-opacity:0.58823532"
         offset="1" />
    </linearGradient>
    <linearGradient
       x1="32.251034"
       y1="6.1317081"
       x2="32.251034"
       y2="90.238609"
       id="linearGradient3780-7"
       xlink:href="#ButtonShadow-0-8"
       gradientUnits="userSpaceOnUse"
       gradientTransform="matrix(1.0238095,0,0,1.0119048,-1.1428571,-98.071429)" />
    <linearGradient
       x1="45.447727"
       y1="92.539597"
       x2="45.447727"
       y2="7.0165396"
       id="linearGradient3071"
       gradientUnits="userSpaceOnUse"
       gradientTransform="matrix(1.0058652,0,0,0.994169,100,0)">
      <stop
         id="stop3073"
         style="stop-color:#000000;stop-opacity:1"
         offset="0" />
      <stop
         id="stop3075"
         style="stop-color:#000000;stop-opacity:0.58823532"
         offset="1" />
    </linearGradient>
    <linearGradient
       x1="32.251034"
       y1="6.1317081"
       x2="32.251034"
       y2="90.238609"
       id="linearGradient3772-2"
       xlink:href="#ButtonShadow-0-8"
       gradientUnits="userSpaceOnUse"
       gradientTransform="matrix(1.0238095,0,0,1.0119048,-1.1428571,-98.071429)" />
    <linearGradient
       x1="45.447727"
       y1="92.539597"
       x2="45.447727"
       y2="7.0165396"
       id="linearGradient3078"
       gradientUnits="userSpaceOnUse"
       gradientTransform="matrix(1.0058652,0,0,0.994169,100,0)">
      <stop
         id="stop3080"
         style="stop-color:#000000;stop-opacity:1"
         offset="0" />
      <stop
         id="stop3082"
         style="stop-color:#000000;stop-opacity:0.58823532"
         offset="1" />
    </linearGradient>
    <linearGradient
       x1="32.251034"
       y1="6.1317081"
       x2="32.251034"
       y2="90.238609"
       id="linearGradient3725-7"
       xlink:href="#ButtonShadow-0-8"
       gradientUnits="userSpaceOnUse"
       gradientTransform="matrix(1.0238095,0,0,1.0119048,-1.1428571,-98.071429)" />
    <linearGradient
       x1="45.447727"
       y1="92.539597"
       x2="45.447727"
       y2="7.0165396"
       id="linearGradient3085"
       gradientUnits="userSpaceOnUse"
       gradientTransform="matrix(1.0058652,0,0,0.994169,100,0)">
      <stop
         id="stop3087"
         style="stop-color:#000000;stop-opacity:1"
         offset="0" />
      <stop
         id="stop3089"
         style="stop-color:#000000;stop-opacity:0.58823532"
         offset="1" />
    </linearGradient>
    <linearGradient
       x1="32.251034"
       y1="6.1317081"
       x2="32.251034"
       y2="90.238609"
       id="linearGradient3721-2"
       xlink:href="#ButtonShadow-0-8"
       gradientUnits="userSpaceOnUse"
       gradientTransform="translate(0,-97)" />
    <linearGradient
       x1="45.447727"
       y1="92.539597"
       x2="45.447727"
       y2="7.0165396"
       id="linearGradient3092"
       gradientUnits="userSpaceOnUse"
       gradientTransform="matrix(1.0058652,0,0,0.994169,100,0)">
      <stop
         id="stop3094"
         style="stop-color:#000000;stop-opacity:1"
         offset="0" />
      <stop
         id="stop3096"
         style="stop-color:#000000;stop-opacity:0.58823532"
         offset="1" />
    </linearGradient>
    <linearGradient
       x1="48"
       y1="90"
       x2="48"
       y2="5.9877172"
       id="linearGradient3617"
       xlink:href="#linearGradient2881"
       gradientUnits="userSpaceOnUse" />
    <linearGradient
       id="linearGradient2881">
      <stop
         id="stop2883"
         style="stop-color:#df880b;stop-opacity:1"
         offset="0" />
      <stop
         id="stop2885"
         style="stop-color:#f7c15a;stop-opacity:1"
         offset="1" />
    </linearGradient>
    <linearGradient
       x1="36.357143"
       y1="6"
       x2="36.357143"
       y2="63.893143"
       id="linearGradient3188-2"
       xlink:href="#linearGradient3737-6"
       gradientUnits="userSpaceOnUse" />
    <linearGradient
       id="linearGradient3737-6">
      <stop
         id="stop3739-1"
         style="stop-color:#ffffff;stop-opacity:1"
         offset="0" />
      <stop
         id="stop3741-0"
         style="stop-color:#ffffff;stop-opacity:0"
         offset="1" />
    </linearGradient>
    <radialGradient
       cx="48"
       cy="90.171875"
       r="42"
       fx="48"
       fy="90.171875"
       id="radialGradient3619"
       xlink:href="#linearGradient3737-6"
       gradientUnits="userSpaceOnUse"
       gradientTransform="matrix(1.1573129,0,0,0.99590774,-7.5510206,0.19713193)" />
    <linearGradient
       id="linearGradient3107">
      <stop
         id="stop3109"
         style="stop-color:#ffffff;stop-opacity:1"
         offset="0" />
      <stop
         id="stop3111"
         style="stop-color:#ffffff;stop-opacity:0"
         offset="1" />
    </linearGradient>
    <linearGradient
       x1="48"
       y1="20.220806"
       x2="48"
       y2="138.66119"
       id="linearGradient3613"
       xlink:href="#linearGradient3737-6"
       gradientUnits="userSpaceOnUse" />
    <linearGradient
       id="linearGradient3114">
      <stop
         id="stop3116"
         style="stop-color:#ffffff;stop-opacity:1"
         offset="0" />
      <stop
         id="stop3118"
         style="stop-color:#ffffff;stop-opacity:0"
         offset="1" />
    </linearGradient>
    <clipPath
       id="clipPath3613">
      <rect
         width="84"
         height="84"
         rx="6"
         ry="6"
         x="6"
         y="6"
         id="rect3615"
         style="fill:#ffffff;fill-opacity:1;fill-rule:nonzero;stroke:none" />
    </clipPath>
    <filter
       x="-0.192"
       y="-0.192"
       width="1.3839999"
       height="1.3839999"
       color-interpolation-filters="sRGB"
       id="filter3794">
      <feGaussianBlur
         id="feGaussianBlur3796"
         stdDeviation="5.28" />
    </filter>
    <linearGradient
       x1="32.251034"
       y1="6.1317081"
       x2="32.251034"
       y2="90.238609"
       id="linearGradient2918-6"
       xlink:href="#ButtonShadow-0-3"
       gradientUnits="userSpaceOnUse"
       gradientTransform="matrix(1.0238095,0,0,1.0119048,-1.1428571,-98.071429)" />
    <linearGradient
       x1="45.447727"
       y1="92.539597"
       x2="45.447727"
       y2="7.0165396"
       id="ButtonShadow-0-3"
       gradientUnits="userSpaceOnUse"
       gradientTransform="matrix(1.0058652,0,0,0.994169,100,0)">
      <stop
         id="stop3750-8-9"
         style="stop-color:#000000;stop-opacity:1"
         offset="0" />
      <stop
         id="stop3752-5-4"
         style="stop-color:#000000;stop-opacity:0.58823532"
         offset="1" />
    </linearGradient>
    <linearGradient
       x1="32.251034"
       y1="6.1317081"
       x2="32.251034"
       y2="90.238609"
       id="linearGradient3780-8"
       xlink:href="#ButtonShadow-0-3"
       gradientUnits="userSpaceOnUse"
       gradientTransform="matrix(1.0238095,0,0,1.0119048,-1.1428571,-98.071429)" />
    <linearGradient
       x1="45.447727"
       y1="92.539597"
       x2="45.447727"
       y2="7.0165396"
       id="linearGradient3186"
       gradientUnits="userSpaceOnUse"
       gradientTransform="matrix(1.0058652,0,0,0.994169,100,0)">
      <stop
         id="stop3188"
         style="stop-color:#000000;stop-opacity:1"
         offset="0" />
      <stop
         id="stop3190"
         style="stop-color:#000000;stop-opacity:0.58823532"
         offset="1" />
    </linearGradient>
    <linearGradient
       x1="32.251034"
       y1="6.1317081"
       x2="32.251034"
       y2="90.238609"
       id="linearGradient3772-1"
       xlink:href="#ButtonShadow-0-3"
       gradientUnits="userSpaceOnUse"
       gradientTransform="matrix(1.0238095,0,0,1.0119048,-1.1428571,-98.071429)" />
    <linearGradient
       x1="45.447727"
       y1="92.539597"
       x2="45.447727"
       y2="7.0165396"
       id="linearGradient3193"
       gradientUnits="userSpaceOnUse"
       gradientTransform="matrix(1.0058652,0,0,0.994169,100,0)">
      <stop
         id="stop3195"
         style="stop-color:#000000;stop-opacity:1"
         offset="0" />
      <stop
         id="stop3197"
         style="stop-color:#000000;stop-opacity:0.58823532"
         offset="1" />
    </linearGradient>
    <linearGradient
       x1="32.251034"
       y1="6.1317081"
       x2="32.251034"
       y2="90.238609"
       id="linearGradient3725-2"
       xlink:href="#ButtonShadow-0-3"
       gradientUnits="userSpaceOnUse"
       gradientTransform="matrix(1.0238095,0,0,1.0119048,-1.1428571,-98.071429)" />
    <linearGradient
       x1="45.447727"
       y1="92.539597"
       x2="45.447727"
       y2="7.0165396"
       id="linearGradient3200"
       gradientUnits="userSpaceOnUse"
       gradientTransform="matrix(1.0058652,0,0,0.994169,100,0)">
      <stop
         id="stop3202"
         style="stop-color:#000000;stop-opacity:1"
         offset="0" />
      <stop
         id="stop3204"
         style="stop-color:#000000;stop-opacity:0.58823532"
         offset="1" />
    </linearGradient>
    <linearGradient
       x1="32.251034"
       y1="6.1317081"
       x2="32.251034"
       y2="90.238609"
       id="linearGradient3721-9"
       xlink:href="#ButtonShadow-0-3"
       gradientUnits="userSpaceOnUse"
       gradientTransform="translate(0,-97)" />
    <linearGradient
       x1="45.447727"
       y1="92.539597"
       x2="45.447727"
       y2="7.0165396"
       id="linearGradient3207"
       gradientUnits="userSpaceOnUse"
       gradientTransform="matrix(1.0058652,0,0,0.994169,100,0)">
      <stop
         id="stop3209"
         style="stop-color:#000000;stop-opacity:1"
         offset="0" />
      <stop
         id="stop3211"
         style="stop-color:#000000;stop-opacity:0.58823532"
         offset="1" />
    </linearGradient>
    <linearGradient
       x1="48"
       y1="90"
       x2="48"
       y2="5.9877172"
       id="linearGradient3617-3"
       xlink:href="#linearGradient2881-9"
       gradientUnits="userSpaceOnUse" />
    <linearGradient
       id="linearGradient2881-9">
      <stop
         id="stop2883-0"
         style="stop-color:#df880b;stop-opacity:1"
         offset="0" />
      <stop
         id="stop2885-8"
         style="stop-color:#f7c15a;stop-opacity:1"
         offset="1" />
    </linearGradient>
    <linearGradient
       x1="36.357143"
       y1="6"
       x2="36.357143"
       y2="63.893143"
       id="linearGradient3188-8"
       xlink:href="#linearGradient3737-5"
       gradientUnits="userSpaceOnUse" />
    <linearGradient
       id="linearGradient3737-5">
      <stop
         id="stop3739-0"
         style="stop-color:#ffffff;stop-opacity:1"
         offset="0" />
      <stop
         id="stop3741-9"
         style="stop-color:#ffffff;stop-opacity:0"
         offset="1" />
    </linearGradient>
    <radialGradient
       cx="48"
       cy="90.171875"
       r="42"
       fx="48"
       fy="90.171875"
       id="radialGradient3619-6"
       xlink:href="#linearGradient3737-5"
       gradientUnits="userSpaceOnUse"
       gradientTransform="matrix(1.1573129,0,0,0.99590774,-7.5510206,0.19713193)" />
    <linearGradient
       id="linearGradient3222">
      <stop
         id="stop3224-3"
         style="stop-color:#ffffff;stop-opacity:1"
         offset="0" />
      <stop
         id="stop3226"
         style="stop-color:#ffffff;stop-opacity:0"
         offset="1" />
    </linearGradient>
    <linearGradient
       x1="48"
       y1="20.220806"
       x2="48"
       y2="138.66119"
       id="linearGradient3613-8"
       xlink:href="#linearGradient3737-5"
       gradientUnits="userSpaceOnUse" />
    <linearGradient
       id="linearGradient3229">
      <stop
         id="stop3231"
         style="stop-color:#ffffff;stop-opacity:1"
         offset="0" />
      <stop
         id="stop3233"
         style="stop-color:#ffffff;stop-opacity:0"
         offset="1" />
    </linearGradient>
    <clipPath
       id="clipPath3613-5">
      <rect
         width="84"
         height="84"
         rx="6"
         ry="6"
         x="6"
         y="6"
         id="rect3615-6"
         style="fill:#ffffff;fill-opacity:1;fill-rule:nonzero;stroke:none" />
    </clipPath>
    <filter
       x="-0.192"
       y="-0.192"
       width="1.3839999"
       height="1.3839999"
       color-interpolation-filters="sRGB"
       id="filter3794-1">
      <feGaussianBlur
         id="feGaussianBlur3796-1"
         stdDeviation="5.28" />
    </filter>
    <linearGradient
       inkscape:collect="always"
       xlink:href="#linearGradient3731"
       id="linearGradient3144"
       gradientUnits="userSpaceOnUse"
       gradientTransform="translate(0,1)"
       x1="48.082497"
       y1="75.561722"
       x2="46.654823"
       y2="16.972879" />
    <linearGradient
       id="linearGradient3731">
      <stop
         id="stop3733"
         style="stop-color:#dcdcdc;stop-opacity:1"
         offset="0" />
      <stop
         id="stop3757"
         style="stop-color:#ebebeb;stop-opacity:1"
         offset="0.30654153" />
      <stop
         id="stop3737"
         style="stop-color:#ffffff;stop-opacity:1"
         offset="0.70706075" />
      <stop
         id="stop3759"
         style="stop-color:#fafafa;stop-opacity:1"
         offset="0.84501493" />
      <stop
         id="stop3735"
         style="stop-color:#f0f0f0;stop-opacity:1"
         offset="1" />
    </linearGradient>
  </defs>
  <metadata
     id="metadata2413">
    <rdf:RDF>
      <cc:Work
         rdf:about="">
        <dc:format>image/svg+xml</dc:format>
        <dc:type
           rdf:resource="http://purl.org/dc/dcmitype/StillImage" />
        <dc:title></dc:title>
      </cc:Work>
    </rdf:RDF>
  </metadata>
  <g
     id="layer2"
     style="display:none">
    <rect
       width="86"
       height="85"
       rx="6"
       ry="6"
       x="5"
       y="7"
       id="rect3745"
       style="opacity:0.9;fill:url(#ButtonShadow);fill-opacity:1;fill-rule:nonzero;stroke:none;filter:url(#filter3174)" />
  </g>
  <g
     id="layer5">
    <path
       d="m 12,-95.03125 c -5.5110903,0 -10.03125,4.52016 -10.03125,10.03125 l 0,71 c 0,5.5110902 4.5201598,10.03125 10.03125,10.03125 l 72,0 c 5.51109,0 10.03125,-4.5201597 10.03125,-10.03125 l 0,-71 c 0,-5.51109 -4.52016,-10.03125 -10.03125,-10.03125 l -72,0 z"
       transform="scale(1,-1)"
       id="path3786"
       style="opacity:0.07999998;fill:url(#linearGradient2918);fill-opacity:1;fill-rule:nonzero;stroke:none;display:inline" />
    <path
       d="m 12,-94.03125 c -4.971633,0 -9.03125,4.059617 -9.03125,9.03125 l 0,71 c 0,4.9716329 4.0596171,9.03125 9.03125,9.03125 l 72,0 c 4.971633,0 9.03125,-4.059617 9.03125,-9.03125 l 0,-71 c 0,-4.971633 -4.059617,-9.03125 -9.03125,-9.03125 l -72,0 z"
       transform="scale(1,-1)"
       id="path3778"
       style="opacity:0.1;fill:url(#linearGradient3780);fill-opacity:1;fill-rule:nonzero;stroke:none;display:inline" />
    <path
       d="m 12,-93 c -4.4091333,0 -8,3.590867 -8,8 l 0,71 c 0,4.4091333 3.5908667,8 8,8 l 72,0 c 4.409133,0 8,-3.5908667 8,-8 l 0,-71 c 0,-4.409133 -3.590867,-8 -8,-8 l -72,0 z"
       transform="scale(1,-1)"
       id="path3770"
       style="opacity:0.2;fill:url(#linearGradient3772);fill-opacity:1;fill-rule:nonzero;stroke:none;display:inline" />
    <rect
       width="86"
       height="85"
       rx="7"
       ry="7"
       x="5"
       y="-92"
       transform="scale(1,-1)"
       id="rect3723"
       style="opacity:0.3;fill:url(#linearGradient3725);fill-opacity:1;fill-rule:nonzero;stroke:none;display:inline" />
    <rect
       width="84"
       height="84"
       rx="6"
       ry="6"
       x="6"
       y="-91"
       transform="scale(1,-1)"
       id="rect3716"
       style="opacity:0.45;fill:url(#linearGradient3721);fill-opacity:1;fill-rule:nonzero;stroke:none;display:inline" />
  </g>
  <g
     id="layer1">
    <path
       d="M 12,6 C 8.676,6 6,8.676 6,12 l 0,2 0,68 0,2 c 0,0.334721 0.04135,0.6507 0.09375,0.96875 0.0487,0.295596 0.09704,0.596915 0.1875,0.875 0.00988,0.03038 0.020892,0.0636 0.03125,0.09375 0.098865,0.287771 0.2348802,0.547452 0.375,0.8125 0.1445918,0.273507 0.3156161,0.535615 0.5,0.78125 0.1843839,0.245635 0.3737765,0.473472 0.59375,0.6875 0.439947,0.428056 0.94291,0.814526 1.5,1.09375 0.278545,0.139612 0.5734731,0.246947 0.875,0.34375 -0.2562018,-0.100222 -0.4867109,-0.236272 -0.71875,-0.375 -0.00741,-0.0044 -0.023866,0.0045 -0.03125,0 -0.031933,-0.0193 -0.062293,-0.04251 -0.09375,-0.0625 -0.120395,-0.0767 -0.2310226,-0.163513 -0.34375,-0.25 -0.1061728,-0.0808 -0.2132809,-0.161112 -0.3125,-0.25 -0.1779299,-0.161433 -0.3474596,-0.345388 -0.5,-0.53125 -0.1075789,-0.130255 -0.2183939,-0.265285 -0.3125,-0.40625 -0.025089,-0.03838 -0.038446,-0.08587 -0.0625,-0.125 -0.064763,-0.103032 -0.1302275,-0.204517 -0.1875,-0.3125 -0.1010083,-0.194706 -0.2056748,-0.415701 -0.28125,-0.625 -0.00796,-0.02181 -0.023589,-0.04055 -0.03125,-0.0625 C 7.2494249,86.5643 7.2454455,86.469419 7.21875,86.375 7.1884177,86.268382 7.1483606,86.171969 7.125,86.0625 7.0521214,85.720988 7,85.364295 7,85 L 7,83 7,15 7,13 C 7,10.218152 9.2181517,8 12,8 l 2,0 68,0 2,0 c 2.781848,0 5,2.218152 5,5 l 0,2 0,68 0,2 c 0,0.364295 -0.05212,0.720988 -0.125,1.0625 -0.04415,0.206893 -0.08838,0.397658 -0.15625,0.59375 -0.0077,0.02195 -0.0233,0.04069 -0.03125,0.0625 -0.06274,0.173739 -0.138383,0.367449 -0.21875,0.53125 -0.04158,0.0828 -0.07904,0.169954 -0.125,0.25 -0.0546,0.09721 -0.126774,0.18835 -0.1875,0.28125 -0.09411,0.140965 -0.204921,0.275995 -0.3125,0.40625 -0.143174,0.17445 -0.303141,0.346998 -0.46875,0.5 -0.01117,0.0102 -0.01998,0.02115 -0.03125,0.03125 -0.138386,0.125556 -0.285091,0.234436 -0.4375,0.34375 -0.102571,0.07315 -0.204318,0.153364 -0.3125,0.21875 -0.0074,0.0045 -0.02384,-0.0044 -0.03125,0 -0.232039,0.138728 -0.462548,0.274778 -0.71875,0.375 0.301527,-0.0968 0.596455,-0.204138 0.875,-0.34375 0.55709,-0.279224 1.060053,-0.665694 1.5,-1.09375 0.219973,-0.214028 0.409366,-0.441865 0.59375,-0.6875 0.184384,-0.245635 0.355408,-0.507743 0.5,-0.78125 0.14012,-0.265048 0.276135,-0.524729 0.375,-0.8125 0.01041,-0.03078 0.02133,-0.06274 0.03125,-0.09375 0.09046,-0.278085 0.1388,-0.579404 0.1875,-0.875 C 89.95865,84.6507 90,84.334721 90,84 l 0,-2 0,-68 0,-2 C 90,8.676 87.324,6 84,6 L 12,6 z"
       inkscape:connector-curvature="0"
       id="rect3728"
       style="opacity:0.5;fill:url(#linearGradient3188);fill-opacity:1;fill-rule:nonzero;stroke:none" />
    <path
       d="M 90,64.1875 90,84 c 0,3.324 -2.676,6 -6,6 L 12,90 C 8.676,90 6,87.324 6,84 l 0,-19.8125 84,0 z"
       inkscape:connector-curvature="0"
       id="rect3243"
       style="fill:#cacaca;fill-opacity:1;fill-rule:nonzero;stroke:none" />
    <path
       d="m 90.030615,64.1875 0,19.8125 c 0,3.324 -2.676,6 -6,6 L 64,90 l 0,-25.8125 26.030615,0 z"
       inkscape:connector-curvature="0"
       id="path3285"
       style="opacity:0.8;fill:url(#linearGradient3287);fill-opacity:1;fill-rule:nonzero;stroke:none" />
    <path
       d="M 6,64.1875 6,84 c 0,3.324 2.676,6 6,6 l 20,0 0,-25.8125 -26,0 z"
       inkscape:connector-curvature="0"
       id="path3263"
       style="opacity:0.8;fill:url(#linearGradient3279);fill-opacity:1;fill-rule:nonzero;stroke:none" />
    <path
       d="M 90,64.1875 90,84 c 0,3.324 -2.676,6 -6,6 L 12,90 C 8.676,90 6,87.324 6,84 l 0,-19.8125 84,0 z"
       inkscape:connector-curvature="0"
       id="path3299"
       style="opacity:0.2;fill:url(#linearGradient3460);fill-opacity:1;fill-rule:nonzero;stroke:none" />
    <g
       id="g3318">
      <path
         d="m 20.178571,85.0625 a 2.0892856,2.0982144 0 1 1 -4.178572,0 2.0892856,2.0982144 0 1 1 4.178572,0 z"
         transform="matrix(0,1.6709402,1.6638297,0,-122.03844,53.282815)"
         id="path3374"
         style="fill:url(#linearGradient3556);fill-opacity:1;fill-rule:nonzero;stroke:none" />
      <path
         d="m 20.178571,85.0625 a 2.0892856,2.0982144 0 1 1 -4.178572,0 2.0892856,2.0982144 0 1 1 4.178572,0 z"
         transform="matrix(1.1923077,0,0,1.1872339,-2.0769275,-17.480158)"
         id="path3364"
         style="fill:url(#radialGradient3558);fill-opacity:1;fill-rule:nonzero;stroke:#000000;stroke-width:0.84049988;stroke-linecap:square;stroke-linejoin:miter;stroke-miterlimit:4;stroke-opacity:0.53181823;stroke-dasharray:none;stroke-dashoffset:0" />
    </g>
    <path
       d="m 57,79.5 c -0.817559,0 -1.5,0.682441 -1.5,1.5 l 0,6 c 0,0.817559 0.682441,1.5 1.5,1.5 0.817559,0 1.5,-0.682441 1.5,-1.5 l 0,-6 c 0,-0.817559 -0.682441,-1.5 -1.5,-1.5 z m 4,0 c -0.817559,0 -1.5,0.682441 -1.5,1.5 l 0,6 c 0,0.817559 0.682441,1.5 1.5,1.5 0.817559,0 1.5,-0.682441 1.5,-1.5 l 0,-6 c 0,-0.817559 -0.682441,-1.5 -1.5,-1.5 z m 4,0 c -0.817559,0 -1.5,0.682441 -1.5,1.5 l 0,6 c 0,0.817559 0.682441,1.5 1.5,1.5 0.817559,0 1.5,-0.682441 1.5,-1.5 l 0,-6 c 0,-0.817559 -0.682441,-1.5 -1.5,-1.5 z m 4,0 c -0.817559,0 -1.5,0.682441 -1.5,1.5 l 0,6 c 0,0.817559 0.682441,1.5 1.5,1.5 0.817559,0 1.5,-0.682441 1.5,-1.5 l 0,-6 c 0,-0.817559 -0.682441,-1.5 -1.5,-1.5 z m 4,0 c -0.817559,0 -1.5,0.682441 -1.5,1.5 l 0,6 c 0,0.817559 0.682441,1.5 1.5,1.5 0.817559,0 1.5,-0.682441 1.5,-1.5 l 0,-6 c 0,-0.817559 -0.682441,-1.5 -1.5,-1.5 z m 4,0 c -0.817559,0 -1.5,0.682441 -1.5,1.5 l 0,6 c 0,0.817559 0.682441,1.5 1.5,1.5 0.817559,0 1.5,-0.682441 1.5,-1.5 l 0,-6 c 0,-0.817559 -0.682441,-1.5 -1.5,-1.5 z m 4,0 c -0.817559,0 -1.5,0.682441 -1.5,1.5 l 0,6 c 0,0.817559 0.682441,1.5 1.5,1.5 0.817559,0 1.5,-0.682441 1.5,-1.5 l 0,-6 c 0,-0.817559 -0.682441,-1.5 -1.5,-1.5 z"
       transform="matrix(1,0,0,-1,-2,168)"
       id="path4237"
       style="fill:url(#linearGradient4239);fill-opacity:1;fill-rule:nonzero;stroke:none" />
    <path
       d="m 55,80 c -0.554,0 -1,0.446 -1,1 l 0,6 c 0,0.554 0.446,1 1,1 0.554,0 1,-0.446 1,-1 l 0,-6 c 0,-0.554 -0.446,-1 -1,-1 z m 4,0 c -0.554,0 -1,0.446 -1,1 l 0,6 c 0,0.554 0.446,1 1,1 0.554,0 1,-0.446 1,-1 l 0,-6 c 0,-0.554 -0.446,-1 -1,-1 z m 4,0 c -0.554,0 -1,0.446 -1,1 l 0,6 c 0,0.554 0.446,1 1,1 0.554,0 1,-0.446 1,-1 l 0,-6 c 0,-0.554 -0.446,-1 -1,-1 z m 4,0 c -0.554,0 -1,0.446 -1,1 l 0,6 c 0,0.554 0.446,1 1,1 0.554,0 1,-0.446 1,-1 l 0,-6 c 0,-0.554 -0.446,-1 -1,-1 z m 4,0 c -0.554,0 -1,0.446 -1,1 l 0,6 c 0,0.554 0.446,1 1,1 0.554,0 1,-0.446 1,-1 l 0,-6 c 0,-0.554 -0.446,-1 -1,-1 z m 4,0 c -0.554,0 -1,0.446 -1,1 l 0,6 c 0,0.554 0.446,1 1,1 0.554,0 1,-0.446 1,-1 l 0,-6 c 0,-0.554 -0.446,-1 -1,-1 z m 4,0 c -0.554,0 -1,0.446 -1,1 l 0,6 c 0,0.554 0.446,1 1,1 0.554,0 1,-0.446 1,-1 l 0,-6 c 0,-0.554 -0.446,-1 -1,-1 z"
       inkscape:connector-curvature="0"
       id="rect4210"
       style="fill:url(#linearGradient4231);fill-opacity:1;fill-rule:nonzero;stroke:none" />
  </g>
  <g
     id="layer3"
     style="display:inline">
    <rect
       width="84"
       height="72"
       rx="6"
       ry="6"
       x="6"
       y="6"
       id="rect3171"
       style="fill:url(#linearGradient3179);fill-opacity:1;fill-rule:nonzero;stroke:none" />
    <path
       d="M 12,78 C 8.676,78 6,75.324 6,72 L 6,12 C 6,8.676 8.676,6 12,6 l 72,0 c 3.324,0 6,2.676 6,6 l 0,60 c 0,3.324 -2.676,6 -6,6 l -72,0 z m 0,-2 72,0 c 2.781848,0 5,-2.195392 5,-4.9375 l 0,-59.125 C 89,9.195393 86.781848,6.999999 84,7 L 12,7 C 9.2181517,7 7,9.195389 7,11.9375 l 0,59.125 C 7,73.804608 9.2181517,76 12,76 z"
       inkscape:connector-curvature="0"
       id="rect3213"
       style="opacity:0.7;fill:url(#linearGradient3551);fill-opacity:1;fill-rule:nonzero;stroke:none" />
    <rect
       width="72"
       height="60"
       rx="4"
       ry="4"
       x="-88"
       y="12"
       id="rect3398"
       style="opacity:0.2;fill:#803300;fill-opacity:1;fill-rule:nonzero;stroke:none" />
    <path
       d="m 90,72 0,1 c 0,3.324 -2.676,6 -6,6 L 12,79 C 8.676,79 6,76.324 6,73 l 0,-1 c 0,2.984862 2.152831,5.43487 5,5.90625 C 11.326884,77.971636 11.652269,78 12,78 l 72,0 c 0.166304,0 0.337194,-0.01811 0.5,-0.03125 0.04161,-0.0041 0.08371,0.0051 0.125,0 C 84.752873,77.95584 84.874673,77.927 85,77.90625 87.847169,77.43487 90,74.984862 90,72 z"
       inkscape:connector-curvature="0"
       id="path3443"
       style="opacity:0.1;fill:url(#linearGradient3454);fill-opacity:1;fill-rule:nonzero;stroke:none" />
    <rect
       width="54.464287"
       height="34.82143"
       rx="9"
       ry="9"
       x="13.306199"
       y="13.887781"
       transform="matrix(1.0880985,0,0,1.1015333,-1.1722568,-1.4100719)"
       id="rect2399"
       style="opacity:0.15;fill:#ffffff;fill-opacity:1;fill-rule:nonzero;stroke:none;filter:url(#filter3179)" />
    <rect
       width="74"
       height="63"
       rx="4.1111112"
       ry="4.1999998"
       x="11"
       y="11"
       id="rect3492"
       style="opacity:0.6;fill:url(#linearGradient3527);fill-opacity:1;fill-rule:nonzero;stroke:none" />
    <rect
       width="72"
       height="60"
       rx="4"
       ry="4"
       x="12"
       y="12"
       id="rect3519"
       style="fill:url(#linearGradient3547);fill-opacity:1;fill-rule:nonzero;stroke:none" />
    <path
       d="m 16,12 c -2.216,0 -4,1.784 -4,4 l 0,52 c 0,2.216 1.784,4 4,4 l 64,0 c 2.216,0 4,-1.784 4,-4 l 0,-52 c 0,-2.216 -1.784,-4 -4,-4 l -64,0 z m 0,0.125 64,0 c 1.639964,0 2.9375,1.297536 2.9375,2.9375 l 0,52 C 82.9375,68.702464 81.639964,70 80,70 l -64,0 c -1.639964,0 -2.9375,-1.297536 -2.9375,-2.9375 l 0,-52 c 0,-1.639964 1.297536,-2.9375 2.9375,-2.9375 z"
       inkscape:connector-curvature="0"
       id="rect3490"
       style="opacity:0.5;fill:url(#linearGradient3517);fill-opacity:1;fill-rule:nonzero;stroke:none" />
    <path
       d="M 64.466651,70.746186 C 32.862441,69.262986 28.526172,59.329842 49.62534,36.936323 25.752355,44.487871 14.457963,55.107187 6.0678887,62.348022 -2.8433524,70.106028 5.5386893,80.117302 15.341349,79.28586 25.500218,79.279131 56.36182,77.407002 64.466651,70.746186 z"
       inkscape:connector-curvature="0"
       transform="matrix(1.1165614,0,0,1.1165614,-0.2667296,-9.2473368)"
       clip-path="url(#clipPath3306)"
       id="path3295"
       style="opacity:0.4;fill:url(#linearGradient3540);fill-opacity:1;fill-rule:evenodd;stroke:none;filter:url(#filter3642)" />
  </g>
  <g
     id="layer4" />
  <g
     transform="matrix(0.45280394,0,0,0.45280394,40.206004,28.164093)"
     id="g3150">
    <g
       id="g3042">
      <g
         id="layer4-5"
         style="display:inline">
        <path
           inkscape:connector-curvature="0"
           d="m 12,-95.03125 c -5.5110903,0 -10.03125,4.52016 -10.03125,10.03125 l 0,71 c 0,5.5110902 4.5201598,10.03125 10.03125,10.03125 l 72,0 c 5.51109,0 10.03125,-4.5201597 10.03125,-10.03125 l 0,-71 c 0,-5.51109 -4.52016,-10.03125 -10.03125,-10.03125 l -72,0 z"
           transform="scale(1,-1)"
           id="path3786-9"
           style="opacity:0.07999998;fill:url(#linearGradient2918-6);fill-opacity:1;fill-rule:nonzero;stroke:none;display:inline" />
        <path
           inkscape:connector-curvature="0"
           d="m 12,-94.03125 c -4.971633,0 -9.03125,4.059617 -9.03125,9.03125 l 0,71 c 0,4.9716329 4.0596171,9.03125 9.03125,9.03125 l 72,0 c 4.971633,0 9.03125,-4.059617 9.03125,-9.03125 l 0,-71 c 0,-4.971633 -4.059617,-9.03125 -9.03125,-9.03125 l -72,0 z"
           transform="scale(1,-1)"
           id="path3778-8"
           style="opacity:0.1;fill:url(#linearGradient3780-8);fill-opacity:1;fill-rule:nonzero;stroke:none;display:inline" />
        <path
           inkscape:connector-curvature="0"
           d="m 12,-93 c -4.4091333,0 -8,3.590867 -8,8 l 0,71 c 0,4.4091333 3.5908667,8 8,8 l 72,0 c 4.409133,0 8,-3.5908667 8,-8 l 0,-71 c 0,-4.409133 -3.590867,-8 -8,-8 l -72,0 z"
           transform="scale(1,-1)"
           id="path3770-4"
           style="opacity:0.2;fill:url(#linearGradient3772-1);fill-opacity:1;fill-rule:nonzero;stroke:none;display:inline" />
        <rect
           width="86"
           height="85"
           rx="7"
           ry="7"
           x="5"
           y="-92"
           transform="scale(1,-1)"
           id="rect3723-8"
           style="opacity:0.3;fill:url(#linearGradient3725-2);fill-opacity:1;fill-rule:nonzero;stroke:none;display:inline" />
        <rect
           width="84"
           height="84"
           rx="6"
           ry="6"
           x="6"
           y="-91"
           transform="scale(1,-1)"
           id="rect3716-1"
           style="opacity:0.45;fill:url(#linearGradient3721-9);fill-opacity:1;fill-rule:nonzero;stroke:none;display:inline" />
      </g>
      <g
         id="layer1-0"
         style="display:inline">
        <rect
           width="84"
           height="84"
           rx="6"
           ry="6"
           x="6"
           y="6"
           id="rect2419"
           style="fill:url(#linearGradient3617-3);fill-opacity:1;fill-rule:nonzero;stroke:none" />
        <path
           d="M 12,6 C 8.676,6 6,8.676 6,12 l 0,2 0,68 0,2 c 0,0.334721 0.04135,0.6507 0.09375,0.96875 0.0487,0.295596 0.09704,0.596915 0.1875,0.875 0.00988,0.03038 0.020892,0.0636 0.03125,0.09375 0.098865,0.287771 0.2348802,0.547452 0.375,0.8125 0.1445918,0.273507 0.3156161,0.535615 0.5,0.78125 0.1843839,0.245635 0.3737765,0.473472 0.59375,0.6875 0.439947,0.428056 0.94291,0.814526 1.5,1.09375 0.278545,0.139612 0.5734731,0.246947 0.875,0.34375 -0.2562018,-0.100222 -0.4867109,-0.236272 -0.71875,-0.375 -0.00741,-0.0044 -0.023866,0.0045 -0.03125,0 -0.031933,-0.0193 -0.062293,-0.04251 -0.09375,-0.0625 -0.120395,-0.0767 -0.2310226,-0.163513 -0.34375,-0.25 -0.1061728,-0.0808 -0.2132809,-0.161112 -0.3125,-0.25 C 8.4783201,88.557317 8.3087904,88.373362 8.15625,88.1875 8.0486711,88.057245 7.9378561,87.922215 7.84375,87.78125 7.818661,87.74287 7.805304,87.69538 7.78125,87.65625 7.716487,87.553218 7.6510225,87.451733 7.59375,87.34375 7.4927417,87.149044 7.3880752,86.928049 7.3125,86.71875 7.30454,86.69694 7.288911,86.6782 7.28125,86.65625 7.2494249,86.5643 7.2454455,86.469419 7.21875,86.375 7.1884177,86.268382 7.1483606,86.171969 7.125,86.0625 7.0521214,85.720988 7,85.364295 7,85 L 7,83 7,15 7,13 C 7,10.218152 9.2181517,8 12,8 l 2,0 68,0 2,0 c 2.781848,0 5,2.218152 5,5 l 0,2 0,68 0,2 c 0,0.364295 -0.05212,0.720988 -0.125,1.0625 -0.04415,0.206893 -0.08838,0.397658 -0.15625,0.59375 -0.0077,0.02195 -0.0233,0.04069 -0.03125,0.0625 -0.06274,0.173739 -0.138383,0.367449 -0.21875,0.53125 -0.04158,0.0828 -0.07904,0.169954 -0.125,0.25 -0.0546,0.09721 -0.126774,0.18835 -0.1875,0.28125 -0.09411,0.140965 -0.204921,0.275995 -0.3125,0.40625 -0.143174,0.17445 -0.303141,0.346998 -0.46875,0.5 -0.01117,0.0102 -0.01998,0.02115 -0.03125,0.03125 -0.138386,0.125556 -0.285091,0.234436 -0.4375,0.34375 -0.102571,0.07315 -0.204318,0.153364 -0.3125,0.21875 -0.0074,0.0045 -0.02384,-0.0044 -0.03125,0 -0.232039,0.138728 -0.462548,0.274778 -0.71875,0.375 0.301527,-0.0968 0.596455,-0.204138 0.875,-0.34375 0.55709,-0.279224 1.060053,-0.665694 1.5,-1.09375 0.219973,-0.214028 0.409366,-0.441865 0.59375,-0.6875 0.184384,-0.245635 0.355408,-0.507743 0.5,-0.78125 0.14012,-0.265048 0.276135,-0.524729 0.375,-0.8125 0.01041,-0.03078 0.02133,-0.06274 0.03125,-0.09375 0.09046,-0.278085 0.1388,-0.579404 0.1875,-0.875 C 89.95865,84.6507 90,84.334721 90,84 l 0,-2 0,-68 0,-2 C 90,8.676 87.324,6 84,6 L 12,6 z"
           inkscape:connector-curvature="0"
           id="rect3728-3"
           style="opacity:0.5;fill:url(#linearGradient3188-8);fill-opacity:1;fill-rule:nonzero;stroke:none" />
        <path
           d="M 12,90 C 8.676,90 6,87.324 6,84 L 6,82 6,14 6,12 c 0,-0.334721 0.04135,-0.6507 0.09375,-0.96875 0.0487,-0.295596 0.09704,-0.596915 0.1875,-0.875 C 6.29113,10.12587 6.302142,10.09265 6.3125,10.0625 6.411365,9.774729 6.5473802,9.515048 6.6875,9.25 6.8320918,8.976493 7.0031161,8.714385 7.1875,8.46875 7.3718839,8.223115 7.5612765,7.995278 7.78125,7.78125 8.221197,7.353194 8.72416,6.966724 9.28125,6.6875 9.559795,6.547888 9.8547231,6.440553 10.15625,6.34375 9.9000482,6.443972 9.6695391,6.580022 9.4375,6.71875 c -0.00741,0.0044 -0.023866,-0.0045 -0.03125,0 -0.031933,0.0193 -0.062293,0.04251 -0.09375,0.0625 -0.120395,0.0767 -0.2310226,0.163513 -0.34375,0.25 -0.1061728,0.0808 -0.2132809,0.161112 -0.3125,0.25 C 8.4783201,7.442683 8.3087904,7.626638 8.15625,7.8125 8.0486711,7.942755 7.9378561,8.077785 7.84375,8.21875 7.818661,8.25713 7.805304,8.30462 7.78125,8.34375 7.716487,8.446782 7.6510225,8.548267 7.59375,8.65625 7.4927417,8.850956 7.3880752,9.071951 7.3125,9.28125 7.30454,9.30306 7.288911,9.3218 7.28125,9.34375 7.2494249,9.4357 7.2454455,9.530581 7.21875,9.625 7.1884177,9.731618 7.1483606,9.828031 7.125,9.9375 7.0521214,10.279012 7,10.635705 7,11 l 0,2 0,68 0,2 c 0,2.781848 2.2181517,5 5,5 l 2,0 68,0 2,0 c 2.781848,0 5,-2.218152 5,-5 l 0,-2 0,-68 0,-2 C 89,10.635705 88.94788,10.279012 88.875,9.9375 88.83085,9.730607 88.78662,9.539842 88.71875,9.34375 88.71105,9.3218 88.69545,9.30306 88.6875,9.28125 88.62476,9.107511 88.549117,8.913801 88.46875,8.75 88.42717,8.6672 88.38971,8.580046 88.34375,8.5 88.28915,8.40279 88.216976,8.31165 88.15625,8.21875 88.06214,8.077785 87.951329,7.942755 87.84375,7.8125 87.700576,7.63805 87.540609,7.465502 87.375,7.3125 87.36383,7.3023 87.35502,7.29135 87.34375,7.28125 87.205364,7.155694 87.058659,7.046814 86.90625,6.9375 86.803679,6.86435 86.701932,6.784136 86.59375,6.71875 c -0.0074,-0.0045 -0.02384,0.0044 -0.03125,0 -0.232039,-0.138728 -0.462548,-0.274778 -0.71875,-0.375 0.301527,0.0968 0.596455,0.204138 0.875,0.34375 0.55709,0.279224 1.060053,0.665694 1.5,1.09375 0.219973,0.214028 0.409366,0.441865 0.59375,0.6875 0.184384,0.245635 0.355408,0.507743 0.5,0.78125 0.14012,0.265048 0.276135,0.524729 0.375,0.8125 0.01041,0.03078 0.02133,0.06274 0.03125,0.09375 0.09046,0.278085 0.1388,0.579404 0.1875,0.875 C 89.95865,11.3493 90,11.665279 90,12 l 0,2 0,68 0,2 c 0,3.324 -2.676,6 -6,6 l -72,0 z"
           inkscape:connector-curvature="0"
           id="path3615"
           style="opacity:0.2;fill:url(#radialGradient3619-6);fill-opacity:1;fill-rule:nonzero;stroke:none" />
      </g>
      <g
         id="layer5-0"
         style="display:inline">
        <rect
           width="66"
           height="66"
           rx="12"
           ry="12"
           x="15"
           y="15"
           clip-path="url(#clipPath3613-5)"
           id="rect3171-4"
           style="opacity:0.1;fill:url(#linearGradient3613-8);fill-opacity:1;fill-rule:nonzero;stroke:#ffffff;stroke-width:0.5;stroke-linecap:round;stroke-linejoin:miter;stroke-miterlimit:4;stroke-opacity:1;stroke-dasharray:none;stroke-dashoffset:0;filter:url(#filter3794-1)" />
      </g>
    </g>
    <path
       d="m 48,14.75 c -20.116904,0 -37.25,13.555598 -37.25,31.25 0,10.082276 5.917985,18.697557 14.34375,24.28125 -0.156911,0.525325 -0.266588,1.03901 -0.625,1.59375 -0.919882,1.423768 -2.132056,2.647096 -4.84375,3.4375 -0.01115,0.0032 -0.02005,-0.0032 -0.03125,0 -0.01706,0.0041 -0.01361,-0.0051 -0.03125,0 -0.06018,0.01709 -0.127309,0.03202 -0.125,0.03125 0.0027,-9.11e-4 -0.10648,0.04343 -0.15625,0.0625 -0.01244,0.0048 -0.03191,0.03154 -0.03125,0.03125 l -0.125,0.03125 a 1.2011555,1.2011555 0 0 0 -0.03125,0 l 0,0.03125 a 1.2011555,1.2011555 0 0 0 -0.0625,0 1.2011555,1.2011555 0 0 0 0,0.03125 1.2011555,1.2011555 0 0 0 -0.03125,0 1.2011555,1.2011555 0 0 0 -0.125,0.0625 1.2011555,1.2011555 0 0 0 -0.09375,0.03125 c 0,0 -0.04304,0.06225 -0.09375,0.09375 a 1.2011555,1.2011555 0 0 0 -0.03125,0 c -0.01203,0.0075 -0.0194,0.02387 -0.03125,0.03125 -0.0071,0.0044 -0.02439,-0.0043 -0.03125,0 3.11e-4,-0.0016 -0.02944,4.53e-4 -0.03125,0 -0.01135,0.0055 0.0064,0.02802 0,0.03125 -0.0064,0.0032 -0.02556,-0.0029 -0.03125,0 -0.0173,0.0078 -0.0138,-0.0022 -0.0625,0.03125 a 1.2011555,1.2011555 0 0 0 -0.0625,0.03125 c -0.02259,0.01561 -0.0032,0.01018 -0.03125,0.03125 -0.08339,0.05003 -0.01856,0.02974 -0.0625,0.0625 2.55e-4,-0.0016 -0.02938,4.14e-4 -0.03125,0 A 1.2011555,1.2011555 0 0 0 18.21875,76 c -0.02131,0.01331 0.0037,0.0063 -0.03125,0.03125 -0.02227,0.01587 -0.0025,-0.0216 -0.03125,0 a 1.2011555,1.2011555 0 0 0 -0.0625,0.03125 c -2e-4,9.87e-4 -0.0036,0.03323 0,0.03125 0.0036,-0.002 -0.035,0.0024 -0.03125,0 a 1.2011555,1.2011555 0 0 0 -0.21875,0.1875 c 0,0 -0.03924,0.06292 -0.09375,0.125 -0.02725,0.03104 -0.07117,0.03661 -0.09375,0.0625 -0.0056,0.0065 0.0051,0.02544 0,0.03125 -0.0051,0.0058 -0.02656,-0.0054 -0.03125,0 -0.0011,6.63e-4 0.0026,0.02921 0,0.03125 -0.0076,0.0071 0.0073,0.02449 0,0.03125 a 1.2011555,1.2011555 0 0 0 -0.03125,0.03125 1.2011555,1.2011555 0 0 0 -0.03125,0 c -0.0052,0.0048 0.0042,0.02735 0,0.03125 a 1.2011555,1.2011555 0 0 0 -0.03125,0 c -0.0029,0.0027 0.0016,0.02973 0,0.03125 -0.0018,0.0017 -0.03125,-5e-6 -0.03125,0 a 1.2011555,1.2011555 0 0 0 -0.0625,0.0625 c 0,0 -0.05453,0.07039 -0.09375,0.125 -0.01961,0.02731 -0.01399,0.03821 -0.03125,0.0625 -0.0048,0.0068 -0.03376,0.03711 -0.03125,0.03125 A 1.2011555,1.2011555 0 0 0 17.25,76.96875 1.2011555,1.2011555 0 0 0 17.25,77 c -0.01159,0.01821 0.0056,-0.03024 -0.03125,0.03125 A 1.2011555,1.2011555 0 0 0 17.1875,77.0625 c 0.0038,-0.0054 0.0052,0.015 0,0.03125 -0.0066,0.01 -0.02415,-0.01127 -0.03125,0 -0.006,0.0091 0.0056,0.02198 0,0.03125 a 1.2011555,1.2011555 0 0 0 -0.0625,0.0625 1.2011555,1.2011555 0 0 0 -0.0625,0.125 c -0.0021,0.0039 1.5e-5,0.03121 0,0.03125 -0.0078,0.01754 -0.03697,0.06771 -0.0625,0.125 -0.01543,0.03462 -0.01866,0.06536 -0.03125,0.09375 -0.01259,0.02839 -0.0061,-0.04717 -0.0625,0.09375 0.103876,-0.259716 0.05856,-0.162006 -0.03125,0.0625 -0.01017,0.0212 -0.02229,0.0089 -0.03125,0.03125 -0.008,0.02004 0.0069,0.01183 0,0.03125 L 16.75,77.9375 a 1.2011555,1.2011555 0 0 0 -0.0625,0.3125 1.2011555,1.2011555 0 0 0 0,0.03125 c -0.0082,0.01102 -0.0625,0.06249 -0.0625,0.0625 -0.0055,0.02756 0.004,0.0078 0,0.03125 -0.0027,0.01126 0.0023,0.01981 0,0.03125 -0.0042,0.01621 -0.02797,0.01485 -0.03125,0.03125 -0.0042,0.02103 0.0032,0.01174 0,0.03125 L 16.5625,78.625 a 1.2011555,1.2011555 0 0 0 0,0.03125 c -0.0055,0.02741 0.004,0.0079 0,0.03125 -0.0027,0.01126 0.0023,0.01981 0,0.03125 -0.0046,0.02317 0.0033,0.01139 0,0.03125 -0.0014,0.0065 -0.02995,-0.0065 -0.03125,0 -0.02535,0.126737 -0.001,0.114057 0,0.1875 A 1.2011555,1.2011555 0 0 0 16.5,79.25 l 0,0.1875 a 1.2011555,1.2011555 0 0 0 0,0.09375 1.2011555,1.2011555 0 0 0 0,0.03125 l 0,0.03125 a 1.2011555,1.2011555 0 0 0 0,0.09375 1.2011555,1.2011555 0 0 0 0,0.0625 c 0,0 -0.0077,0.06251 0,0.125 0.0038,0.03125 0.02777,0.03514 0.03125,0.0625 0.0035,0.02736 -0.04918,-0.08964 0,0.15625 0.0033,0.01647 0.02708,0.01498 0.03125,0.03125 0.0025,0.0098 -0.0028,0.02148 0,0.03125 0.004,0.02339 -0.0055,0.0038 0,0.03125 a 1.2011555,1.2011555 0 0 0 0,0.03125 l 0.03125,0.15625 a 1.2011555,1.2011555 0 0 0 0.125,0.28125 1.2011555,1.2011555 0 0 0 0,0.03125 c -7.1e-4,0.01656 -2e-6,0.09374 0,0.09375 0.009,0.02249 0.02105,0.01 0.03125,0.03125 0.0102,0.02126 0.02005,0.01121 0.03125,0.03125 -1.34e-4,-0.0011 -0.0032,0.02044 0,0.03125 a 1.2011555,1.2011555 0 0 0 0,0.03125 l 0.0625,0.15625 a 1.2011555,1.2011555 0 0 0 0,0.03125 c 0.009,0.02239 0.02108,0.01006 0.03125,0.03125 0.01017,0.02119 0.02007,0.01127 0.03125,0.03125 0.0044,0.009 -0.0048,0.02234 0,0.03125 a 1.2011555,1.2011555 0 0 0 0,0.03125 1.2011555,1.2011555 0 0 0 0.03125,0.03125 1.2011555,1.2011555 0 0 0 0,0.03125 1.2011555,1.2011555 0 0 0 0.03125,0.03125 1.2011555,1.2011555 0 0 0 0.0625,0.125 1.2011555,1.2011555 0 0 0 0,0.03125 1.2011555,1.2011555 0 0 0 0.03125,0.09375 l 0.09375,0.15625 c -0.0021,-0.0035 0.127451,0.190791 0.125,0.1875 l 0.09375,0.125 a 1.2011555,1.2011555 0 0 0 0.25,0.25 1.2011555,1.2011555 0 0 0 0.0625,0.03125 c 0.03396,0.03875 -0.01591,0.01534 0.03125,0.0625 a 1.2011555,1.2011555 0 0 0 0.09375,0.09375 c 0,0 0.02413,0.03173 0.0625,0.0625 0.0061,0.0049 0.02927,-0.0018 0.03125,0 l 0.03125,0.03125 c 0.0017,0.0018 0.01733,0.02046 0.03125,0.03125 A 1.2011555,1.2011555 0 0 0 18,82.625 c 4.4e-5,3.7e-5 0.02773,-0.0024 0.03125,0 0.0022,0.0015 -0.0033,0.02902 0,0.03125 A 1.2011555,1.2011555 0 0 0 18.125,82.75 c 0.0033,0.0027 0.02685,-0.0035 0.03125,0 0.02037,0.01414 0.0076,0.02915 0.09375,0.09375 0.01734,0.01312 0.01135,0.01633 0.03125,0.03125 0.04616,0.03462 0.03062,0.0106 0.0625,0.03125 a 1.2011555,1.2011555 0 0 0 0.21875,0.15625 c 0,0 0.08702,0.03165 0.15625,0.0625 0.03462,0.01543 0.06536,0.01866 0.09375,0.03125 0.02839,0.01259 -0.04735,0.0061 0.09375,0.0625 -0.260051,-0.10401 -0.161888,-0.05853 0.0625,0.03125 0.02117,0.01016 0.0089,0.0223 0.03125,0.03125 0.02002,0.008 0.01185,-0.0069 0.03125,0 l 0.15625,0.0625 0.15625,0.0625 a 1.2011555,1.2011555 0 0 0 0.3125,0.0625 c 0.0039,0.0028 0.02816,-0.0023 0.03125,0 0.01094,0.008 0.06249,0.0625 0.0625,0.0625 0.02753,0.0055 0.0078,-0.004 0.03125,0 0.0097,0.0028 0.02143,-0.0025 0.03125,0 0.01622,0.0042 0.01484,0.02797 0.03125,0.03125 0.02105,0.0042 0.01174,-0.0032 0.03125,0 l 0.15625,0.03125 a 1.2011555,1.2011555 0 0 0 0.1875,0 c -0.0023,-1.31e-4 0.127276,0 0.125,0 -0.0017,0 0.05646,0.0011 0.09375,0 0.01122,0.0012 0.02004,-0.0011 0.03125,0 -2.2e-5,8.21e-4 1.8e-5,0.03125 0,0.03125 l 0.03125,0 0.0625,0 0,-0.03125 c 9.75377,0.958306 16.717111,-3.140306 20.90625,-6.9375 C 43.560015,76.990982 45.704673,77.25 48,77.25 68.116904,77.25 85.25,63.694402 85.25,46 85.25,28.305598 68.116904,14.75 48,14.75 z m -27.5625,68.5 a 1.2011555,1.2011555 0 0 0 0.03125,0 l 0,0.15625 L 20.4375,83.25 z"
       inkscape:connector-curvature="0"
       id="path3724"
       style="opacity:0.05;fill:#000000;fill-opacity:1;stroke:none;display:inline" />
    <path
       d="m 48,15.9375 c -19.579201,0 -36.0625,13.148394 -36.0625,30.0625 0,9.944956 5.976427,18.49076 14.59375,23.875 -0.219981,0.833558 -0.436479,1.687311 -1.0625,2.65625 -1.031358,1.596307 -2.547994,3.075738 -5.53125,3.9375 -0.01077,0.0031 -0.02044,-0.0031 -0.03125,0 a 1.0827956,1.0827956 0 0 0 -0.1875,0.0625 l -0.15625,0.0625 0.40625,1 c -0.21083,-0.498642 -0.430172,-1.002932 -0.4375,-1 -0.01466,0.0059 -0.01172,0.02344 -0.03125,0.03125 -0.01953,0.0078 -0.0479,0.02541 -0.0625,0.03125 -0.0146,0.0058 -0.03125,0 -0.03125,0 0,0 -0.238337,0.147502 -0.25,0.15625 -0.01166,0.0087 -0.04687,0.01953 -0.0625,0.03125 0.01466,-0.0088 -0.0625,0.03125 -0.0625,0.03125 C 19.02,76.8817 19.00877,76.90099 19,76.90625 c -0.01461,0.0088 -0.03125,0 -0.03125,0 0,0 -0.08203,0.08496 -0.09375,0.09375 -0.01172,0.0088 -0.04687,0.01953 -0.0625,0.03125 -0.01563,0.01172 -0.01957,0.02249 -0.03125,0.03125 -0.01168,0.0088 -0.03125,0 -0.03125,0 0,0 -0.210012,0.238349 -0.21875,0.25 -0.0087,0.01165 -0.01953,0.01562 -0.03125,0.03125 -0.006,0.006 0.0063,0.025 0,0.03125 -0.0023,0.003 -0.02911,-0.0028 -0.03125,0 -0.01328,0.01555 -0.03125,0.03125 -0.03125,0.03125 l -0.03125,0.03125 c 0,0 -0.147484,0.20414 -0.15625,0.21875 -0.0088,0.01461 -0.01953,0.04296 -0.03125,0.0625 -0.01172,0.01954 -0.02245,0.01659 -0.03125,0.03125 -0.0088,0.01466 -0.03125,0.03125 -0.03125,0.03125 -0.0043,0.0057 0.0035,0.02658 0,0.03125 -0.0087,0.01166 -0.03125,0 -0.03125,0 0,0 -0.119159,0.266646 -0.125,0.28125 -0.0058,0.0146 -0.02343,0.04296 -0.03125,0.0625 -0.0078,0.01954 -0.02538,0.01659 -0.03125,0.03125 -0.0059,0.01466 0,0.03125 0,0.03125 l -0.0625,0.15625 1,0.40625 1.03125,0.34375 c 0,0 -2.090832,-0.545842 -2.09375,-0.53125 -0.0029,0.01459 0.0039,0.04297 0,0.0625 -0.0039,0.01953 -0.02832,0.01659 -0.03125,0.03125 -0.0029,0.01466 0,0.03125 0,0.03125 L 17.75,78.875 l 0.71875,0.15625 c -0.324382,-0.05392 -0.717756,-0.12997 -0.71875,-0.125 -0.0029,0.01467 0.0039,0.04296 0,0.0625 -0.0039,0.01954 -0.02833,0.01666 -0.03125,0.03125 -0.0029,0.01459 0,0.03125 0,0.03125 l 1.0625,0.21875 -1.09375,0 0,0.1875 1.09375,0 c -0.541299,0.0092 -1.09375,0.02392 -1.09375,0.03125 l 0,0.0625 0,0.03125 0,0.03125 c 0,0 0.02833,0.235394 0.03125,0.25 0.0029,0.01461 0.02734,0.01171 0.03125,0.03125 0.0039,0.01954 -0.0029,0.04785 0,0.0625 0.0029,0.01465 0,0.03125 0,0.03125 L 17.78125,80.125 18.84375,79.90625 19.875,79.625 c 0,0 -2.037092,0.704147 -2.03125,0.71875 0.0058,0.0146 0.02344,0.01171 0.03125,0.03125 0.0078,0.01954 0.02539,0.04784 0.03125,0.0625 0.0059,0.01466 0,0.03125 0,0.03125 l 0.0625,0.15625 0.8125,-0.34375 c -0.399535,0.176421 -0.814937,0.368909 -0.8125,0.375 0.0059,0.01467 0.02343,0.01172 0.03125,0.03125 0.0078,0.01953 0.02541,0.04791 0.03125,0.0625 0.0058,0.01459 0,0.03125 0,0.03125 l 1,-0.40625 -0.9375,0.5625 0.09375,0.15625 A 1.0827956,1.0827956 0 0 0 18.25,81.1875 l 0.09375,0.125 0.875,-0.65625 0.84375,-0.6875 c 0,0 -1.605441,1.457059 -1.59375,1.46875 0.01169,0.01169 0.04687,0.01562 0.0625,0.03125 0.01563,0.01563 0.01953,0.05078 0.03125,0.0625 0,0 0.144588,0.116254 0.15625,0.125 0.01166,0.0087 0.01562,0.01953 0.03125,0.03125 l 0.03125,0.03125 c 0.0078,0.0066 0.02631,-0.0042 0.03125,0 0.0073,0.0073 -0.0058,0.02541 0,0.03125 l 0.03125,0.03125 0.125,0.09375 c 0.01172,0.0088 0.01562,0.01953 0.03125,0.03125 0.01563,0.01172 0.05082,0.02249 0.0625,0.03125 0.01168,0.0088 0,0.03125 0,0.03125 0,0 0.266666,0.119167 0.28125,0.125 0.01458,0.0058 0.04297,0.02343 0.0625,0.03125 0.01953,0.0078 0.01657,0.02538 0.03125,0.03125 0.01468,0.0059 0.03125,0 0.03125,0 l 0.15625,0.0625 0.15625,0.0625 0.40625,-1 L 20.5,80.25 c 0,0 -0.514605,2.090829 -0.5,2.09375 0.0146,0.0029 0.04297,-0.0039 0.0625,0 0.01953,0.0039 0.0166,0.02832 0.03125,0.03125 0.01465,0.0029 0.03125,0 0.03125,0 l 0.15625,0.03125 a 1.0827956,1.0827956 0 0 0 0.125,0 1.0827956,1.0827956 0 0 0 0.0625,0.03125 c -0.001,-1.6e-5 0.09477,-1.6e-5 0.09375,0 l 0,-0.03125 c 9.746199,1.001679 16.579987,-3.248053 20.5625,-7 C 43.339899,75.775808 45.613708,76.0625 48,76.0625 67.579201,76.0625 84.0625,62.914106 84.0625,46 84.0625,29.085894 67.579201,15.9375 48,15.9375 z m 0,18.09375 c 0.498551,1.4e-5 0.611702,0.07432 0.8125,0.25 a 3.043299,3.043299 0 0 0 0.125,0.125 c 0.01949,0.0153 0.02467,0.0099 0.03125,0 -0.0033,0.01119 -2e-6,0.05577 0,0.28125 l 0,14.5625 c -4e-6,0.50114 0.02226,0.309826 -0.09375,0.40625 a 3.043299,3.043299 0 0 0 -0.0625,0.0625 c -0.200785,0.175678 -0.314012,0.250004 -0.8125,0.25 -0.435896,4e-6 -0.594229,-0.07912 -0.875,-0.3125 -0.116009,-0.09643 -0.09375,0.09488 -0.09375,-0.40625 l 0,-14.5625 c 0,-0.225477 0.0033,-0.270061 0,-0.28125 0.0066,0.0099 0.01176,0.0153 0.03125,0 a 3.043299,3.043299 0 0 0 0.0625,-0.0625 c 0.280788,-0.233383 0.439036,-0.312487 0.875,-0.3125 z m 0.03125,25 c 0.366747,2e-6 0.34586,-0.009 0.59375,0.25 a 3.043299,3.043299 0 0 0 0.03125,0.0625 c 0.298455,0.296266 0.312496,0.292366 0.3125,0.65625 -4e-6,0.363895 -0.01406,0.360002 -0.3125,0.65625 a 3.043299,3.043299 0 0 0 -0.03125,0.0625 c -0.247892,0.259016 -0.22702,0.25 -0.59375,0.25 -0.366752,0 -0.390531,-0.01771 -0.6875,-0.3125 C 47.045306,60.360003 47.031249,60.363872 47.03125,60 c -10e-7,-0.363862 0.01404,-0.359985 0.3125,-0.65625 0.296967,-0.294783 0.320731,-0.312498 0.6875,-0.3125 z"
       inkscape:connector-curvature="0"
       id="path3720"
       style="opacity:0.05;fill:#000000;fill-opacity:1;stroke:none;display:inline" />
    <path
       d="m 48,17.03125 c -19.096863,0 -34.96875,12.7615 -34.96875,28.96875 0,9.812619 6.015233,18.310203 14.8125,23.5 -0.227788,1.047432 -0.613208,2.300814 -1.46875,3.625 -1.149033,1.778442 -2.947053,3.481431 -6.21875,4.40625 a 0.98625776,0.98625776 0 0 0 -0.03125,0 l -0.15625,0.0625 c 1.01e-4,-4.3e-5 -0.156347,0.06255 -0.15625,0.0625 9.7e-5,-5.2e-5 -0.125092,0.09381 -0.125,0.09375 9.2e-5,-6e-5 -0.156337,0.09382 -0.15625,0.09375 l -0.125,0.09375 c 8.1e-5,-7.4e-5 -0.09382,0.125081 -0.09375,0.125 7.4e-5,-8.1e-5 -0.125067,0.125087 -0.125,0.125 6.7e-5,-8.7e-5 -0.09381,0.156342 -0.09375,0.15625 6e-5,-9.2e-5 -0.0938,0.125097 -0.09375,0.125 5.2e-5,-9.7e-5 -0.06254,0.156351 -0.0625,0.15625 l -0.0625,0.15625 c 3.5e-5,-1.04e-4 -0.03128,0.156357 -0.03125,0.15625 l -0.03125,0.15625 c 1.7e-5,-1.09e-4 -0.03126,0.15636 -0.03125,0.15625 l 0,0.1875 c -2e-6,-1.1e-4 1.1e-5,0.156359 0,0.15625 -1.1e-5,-1.09e-4 0.03127,0.156358 0.03125,0.15625 l 0.03125,0.15625 c -2.9e-5,-1.06e-4 0.06254,0.156353 0.0625,0.15625 l 0.0625,0.15625 c -4.6e-5,-1e-4 0.06255,0.156345 0.0625,0.15625 l 0.09375,0.15625 0.09375,0.125 c -7e-5,-8.5e-5 0.125077,0.125079 0.125,0.125 -7.7e-5,-7.9e-5 0.125083,0.09382 0.125,0.09375 -8.3e-5,-7.2e-5 0.125089,0.125065 0.125,0.125 l 0.125,0.09375 c -9.4e-5,-5.7e-5 0.156348,0.06255 0.15625,0.0625 l 0.15625,0.0625 0.15625,0.0625 c -1.05e-4,-3.2e-5 0.156358,0.03127 0.15625,0.03125 L 20.5,81.34375 a 0.98625776,0.98625776 0 0 0 0.03125,0 c 9.754627,1.060137 16.452148,-3.359222 20.25,-7.0625 2.330745,0.410391 4.727971,0.6875 7.21875,0.6875 C 67.096863,74.96875 82.96875,62.20725 82.96875,46 82.96875,29.79275 67.096863,17.03125 48,17.03125 z m 0,16 c 0.700323,1.9e-5 1.085981,0.165115 1.46875,0.5 a 2.0462466,2.0462466 0 0 0 0.09375,0.0625 c 0.313198,0.245883 0.406244,0.371475 0.40625,1.09375 l 0,14.5625 c -6e-6,0.722333 -0.12996,0.905897 -0.46875,1.1875 a 2.0462466,2.0462466 0 0 0 -0.03125,0.03125 c -0.38276,0.334898 -0.768469,0.500006 -1.46875,0.5 -0.64516,6e-6 -1.050423,-0.157553 -1.5,-0.53125 -0.338797,-0.281603 -0.468751,-0.465177 -0.46875,-1.1875 l 0,-14.5625 c -10e-7,-0.722266 0.09304,-0.847865 0.40625,-1.09375 A 2.0462466,2.0462466 0 0 0 46.5,33.5625 c 0.449588,-0.373684 0.854794,-0.531231 1.5,-0.53125 z m 0.03125,25 c 0.608997,4e-6 0.899903,0.13139 1.3125,0.5625 A 2.0462466,2.0462466 0 0 0 49.375,58.625 c 0.459534,0.456163 0.593744,0.770592 0.59375,1.375 -6e-6,0.604417 -0.134227,0.918852 -0.59375,1.375 a 2.0462466,2.0462466 0 0 0 -0.03125,0.03125 c -0.412598,0.431114 -0.703514,0.5625 -1.3125,0.5625 -0.609004,0 -0.947714,-0.138585 -1.40625,-0.59375 -0.45953,-0.456147 -0.593751,-0.770598 -0.59375,-1.375 -10e-7,-0.604393 0.13421,-0.918837 0.59375,-1.375 0.458534,-0.455161 0.797234,-0.593746 1.40625,-0.59375 z"
       inkscape:connector-curvature="0"
       id="path3716"
       style="opacity:0.12000002;fill:#000000;fill-opacity:1;stroke:none;display:inline" />
    <path
       d="m 48,18.03125 c -18.659679,0 -33.96875,12.408319 -33.96875,27.96875 0,9.666704 5.998045,18.089309 14.9375,23.09375 -0.210518,1.192634 -0.651323,2.861997 -1.75,4.5625 -1.255074,1.94257 -3.29009,3.825645 -6.78125,4.8125 A 0.98224108,0.98224108 0 0 0 20.625,80.375 C 30.315483,81.428166 36.870683,76.879082 40.46875,73.25 42.897609,73.704466 45.403113,73.96875 48,73.96875 66.659679,73.96875 81.96875,61.560431 81.96875,46 81.96875,30.439569 66.659679,18.03125 48,18.03125 z M 48,32 c 0.914706,2.5e-5 1.580138,0.245959 2.15625,0.75 a 0.98687843,0.98687843 0 0 0 0.0625,0.03125 C 50.781906,33.223368 50.999992,33.730199 51,34.6875 L 51,49.25 c -8e-6,0.95735 -0.237001,1.521645 -0.8125,2 a 0.98687843,0.98687843 0 0 0 -0.03125,0 C 49.580142,51.754069 48.914686,52.000008 48,52 c -0.867504,8e-6 -1.558568,-0.227219 -2.1875,-0.75 -0.575509,-0.478355 -0.812502,-1.042655 -0.8125,-2 l 0,-14.5625 c -2e-6,-0.957297 0.218084,-1.464131 0.78125,-1.90625 A 0.98687843,0.98687843 0 0 0 45.8125,32.75 C 46.441438,32.227246 47.132474,32.000025 48,32 z m 0.03125,25 c 0.866387,5e-6 1.474902,0.261036 2.0625,0.875 a 0.98687843,0.98687843 0 0 0 0.03125,0 c 0.630679,0.626054 0.874991,1.265035 0.875,2.125 -9e-6,0.859972 -0.244326,1.498958 -0.875,2.125 a 0.98687843,0.98687843 0 0 0 -0.03125,0 C 49.506151,62.738968 48.897632,63 48.03125,63 47.164852,63 46.5052,62.750568 45.875,62.125 45.244316,61.498959 44.999998,60.859965 45,60 c -2e-6,-0.859957 0.244311,-1.498947 0.875,-2.125 0.630199,-0.625564 1.289847,-0.874995 2.15625,-0.875 z"
       inkscape:connector-curvature="0"
       id="path3712"
       style="opacity:0.23999999;fill:#000000;fill-opacity:1;stroke:none;display:inline" />
    <path
       d="m 48,18 c -18.225397,0 -33,12.088312 -33,27 0,9.498438 5.99976,17.843462 15.0625,22.65625 -0.344625,2.508754 -1.914014,8.649817 -9.34375,10.75 9.622915,1.045823 16.013601,-3.646306 19.40625,-7.1875 C 42.648507,71.724251 45.286067,72 48,72 66.225397,72 81,59.911688 81,45 81,30.088312 66.225397,18 48,18 z m 0,12 c 1.11442,3.1e-5 2.056274,0.338377 2.8125,1 0.79601,0.624925 1.18749,1.511255 1.1875,2.6875 L 52,48.25 c -1e-5,1.176286 -0.39149,2.088356 -1.1875,2.75 -0.756226,0.661664 -1.69808,1.00001 -2.8125,1 -1.074633,1e-5 -2.016485,-0.338336 -2.8125,-1 C 44.391477,50.338356 43.999998,49.426286 44,48.25 L 44,33.6875 C 43.999998,32.511255 44.391477,31.624925 45.1875,31 45.983515,30.338377 46.925367,30.000031 48,30 z m 0.03125,25 c 1.106165,7e-6 2.030625,0.403194 2.78125,1.1875 0.790114,0.784319 1.187489,1.714466 1.1875,2.8125 -1.1e-5,1.098042 -0.397386,2.028189 -1.1875,2.8125 C 50.061875,62.596814 49.137415,63 48.03125,63 46.925072,63 45.977618,62.596814 45.1875,61.8125 44.397374,61.028189 43.999998,60.098042 44,59 c -2e-6,-1.098034 0.397374,-2.028181 1.1875,-2.8125 0.790118,-0.784306 1.737572,-1.187493 2.84375,-1.1875 z"
       inkscape:connector-curvature="0"
       id="path3620"
       style="fill:url(#linearGradient3144);fill-opacity:1;stroke:none;display:inline" />
    <path
       d="m 48,18 c -18.225397,0 -33,12.088312 -33,27 0,0.208408 0.0255,0.417728 0.03125,0.625 C 15.915093,31.359014 30.344147,20 48,20 65.811103,20 80.318034,31.557401 80.96875,46 80.983886,45.664059 81,45.338968 81,45 81,30.088312 66.225397,18 48,18 z m -4,30.25 0,2 c -2e-6,1.176286 0.391477,2.088356 1.1875,2.75 0.796015,0.661664 1.737867,1.00001 2.8125,1 1.11442,1e-5 2.056274,-0.338336 2.8125,-1 0.79601,-0.661644 1.18749,-1.573714 1.1875,-2.75 l 0,-2 c -1e-5,1.176286 -0.39149,2.088356 -1.1875,2.75 -0.756226,0.661664 -1.69808,1.00001 -2.8125,1 -1.074633,1e-5 -2.016485,-0.338336 -2.8125,-1 C 44.391477,50.338356 43.999998,49.426286 44,48.25 z M 44.125,60 c -0.08219,0.319378 -0.125001,0.64657 -0.125,1 -2e-6,1.098042 0.397374,2.028189 1.1875,2.8125 C 45.977618,64.596814 46.925072,65 48.03125,65 49.137415,65 50.061875,64.596814 50.8125,63.8125 51.602614,63.028189 51.999989,62.098042 52,61 c -4e-6,-0.35343 -0.04281,-0.680622 -0.125,-1 -0.173149,0.672866 -0.526704,1.280639 -1.0625,1.8125 C 50.061875,62.596814 49.137415,63 48.03125,63 46.925072,63 45.977618,62.596814 45.1875,61.8125 44.651696,61.280639 44.298146,60.672866 44.125,60 z m -14.4375,9.4375 c -0.788875,2.925833 -2.942108,7.265183 -8.96875,8.96875 1.438598,0.156348 2.798846,0.170865 4.09375,0.09375 3.95088,-2.735394 4.981412,-6.888521 5.25,-8.84375 -0.129197,-0.06861 -0.247056,-0.148711 -0.375,-0.21875 z"
       inkscape:connector-curvature="0"
       id="path3711"
       style="opacity:0.8;fill:#ffffff;fill-opacity:1;stroke:none;display:inline" />
  </g>
</svg>
