/* XPM */
static char *desktop[] = {
/* columns rows colors chars-per-pixel */
"16 16 117 2",
"   c #1E3255",
".  c #1A375F",
"X  c #343F4D",
"o  c #2B3C55",
"O  c #1E3E69",
"+  c #1A3C78",
"@  c #183E7C",
"#  c #19417A",
"$  c #2F4666",
"%  c #3A4B68",
"&  c #2B4979",
"*  c #414448",
"=  c #4D4E4F",
"-  c #505050",
";  c #585858",
":  c #555C69",
">  c #5F6165",
",  c #5F6B7D",
"<  c #606060",
"1  c #6A6A6A",
"2  c #6E7177",
"3  c #747474",
"4  c #797979",
"5  c #7D7D7D",
"6  c #FF2A2A",
"7  c #5AA02C",
"8  c #FFCC00",
"9  c #D1A85F",
"0  c #D9B97D",
"q  c #0F3A88",
"w  c #113A85",
"e  c #123D85",
"r  c #153D88",
"t  c #113D8D",
"y  c #103D8F",
"u  c #113E90",
"i  c #194485",
"p  c #144293",
"a  c #174690",
"s  c #134294",
"d  c #144396",
"f  c #17499C",
"g  c #184A9C",
"h  c #1A4C9F",
"j  c #224E87",
"k  c #28569B",
"l  c #1A4EA0",
"z  c #1B4EA1",
"x  c #1C50A2",
"c  c #1C50A3",
"v  c #1E54A7",
"b  c #1F55A8",
"n  c #275CA2",
"m  c #2057AA",
"M  c #2158AC",
"N  c #225AAD",
"B  c #255FB1",
"V  c #255FB2",
"C  c #255FB3",
"Z  c #3763A0",
"A  c #3062A4",
"S  c #2861B0",
"D  c #2864B8",
"F  c #2A66BA",
"G  c #5573AB",
"H  c #4871B2",
"J  c #4C77B9",
"K  c #4D7ABD",
"L  c #617FB2",
"P  c #2F6FC4",
"I  c #3172C6",
"U  c #367ACF",
"Y  c #397ED3",
"T  c #517FC2",
"R  c #3B81D7",
"E  c #5483C6",
"W  c #5687CA",
"Q  c #598DD0",
"!  c #5A8ED1",
"~  c #5D92D6",
"^  c #5E95D9",
"/  c #408AE0",
"(  c #639CE0",
")  c #818181",
"_  c #868686",
"`  c #898989",
"'  c #8A8A8A",
"]  c #8F8F8F",
"[  c #909090",
"{  c #939393",
"}  c #949494",
"|  c #989898",
" . c #9C9C9C",
".. c #A1A1A1",
"X. c #A5A5A5",
"o. c #A9A9A9",
"O. c #AEAEAE",
"+. c #B2B2B2",
"@. c #B3B3B3",
"#. c #B6B6B6",
"$. c #B7B7B7",
"%. c #BDBDBD",
"&. c #87AADE",
"*. c #C1C1C1",
"=. c #C4C4C4",
"-. c #C8C8C8",
";. c #CBCBCB",
":. c #CFCFCF",
">. c #D2D2D2",
",. c #D6D6D6",
"<. c #D9D9D9",
"1. c #DFDFDF",
"2. c #E1E1E1",
"3. c #EFEFEF",
"4. c #FDFDFD",
"5. c #FFFFFF",
"6. c None",
/* pixels */
"6.$.$.$.#.#.$.$.$.$.$.$.$.#.$.6.",
"+.2.5.5.5.4.5.5.5.5.4.4.5.4.2.+.",
"O.3.G q y y u u q u u y y G 3.O.",
"o.1.u 0 0 u u q u u u u y y [ { ",
"X.<.y 9 9 y u u u q y y + : < - ",
"..,.y u y u d d d d r % 1 * 5  .",
" .>.u O.O.f z z c & 2 =   w >. .",
"| :.u ` ` v N k , ; o @ e q :.| ",
"{ ;.d l b S Z < X O # i a p ;.{ ",
"[ -.f b S Z $ # i k S B v g -.] ",
"` =.l b D P U R R U I D M h =.' ",
"_ *.l &.7 I R R / R I F N l *._ ",
") %.G 6 8 Q ^ ( ( ^ Q E K H %.) ",
"L +.L G E W Q ~ ~ Q W E J L #.5 ",
"4 { O.#.#.#.#.@.$.$.#.#.#.@.{ 4 ",
"6.3 3 3 3 3 3 3 3 3 3 3 3 3 3 6."
};
