<?xml version="1.0" encoding="UTF-8" standalone="no"?>
<!-- Created with Inkscape (http://www.inkscape.org/) -->

<svg
   xmlns:dc="http://purl.org/dc/elements/1.1/"
   xmlns:cc="http://creativecommons.org/ns#"
   xmlns:rdf="http://www.w3.org/1999/02/22-rdf-syntax-ns#"
   xmlns:svg="http://www.w3.org/2000/svg"
   xmlns="http://www.w3.org/2000/svg"
   xmlns:xlink="http://www.w3.org/1999/xlink"
   xmlns:sodipodi="http://sodipodi.sourceforge.net/DTD/sodipodi-0.dtd"
   xmlns:inkscape="http://www.inkscape.org/namespaces/inkscape"
   version="1.0"
   width="96"
   height="96"
   id="svg2408"
   style="display:inline"
   inkscape:version="0.48.0 r9654"
   sodipodi:docname="system-shut-down.svg">
  <metadata
     id="metadata74">
    <rdf:RDF>
      <cc:Work
         rdf:about="">
        <dc:format>image/svg+xml</dc:format>
        <dc:type
           rdf:resource="http://purl.org/dc/dcmitype/StillImage" />
        <dc:title></dc:title>
      </cc:Work>
    </rdf:RDF>
  </metadata>
  <sodipodi:namedview
     pagecolor="#ffffff"
     bordercolor="#666666"
     borderopacity="1"
     objecttolerance="10"
     gridtolerance="10"
     guidetolerance="10"
     inkscape:pageopacity="0"
     inkscape:pageshadow="2"
     inkscape:window-width="1260"
     inkscape:window-height="919"
     id="namedview72"
     showgrid="false"
     inkscape:zoom="2.8958333"
     inkscape:cx="48"
     inkscape:cy="38.884373"
     inkscape:window-x="192"
     inkscape:window-y="225"
     inkscape:window-maximized="0"
     inkscape:current-layer="svg2408" />
  <defs
     id="defs2410">
    <linearGradient
       id="linearGradient3637">
      <stop
         id="stop3639"
         style="stop-color:#f0f0f0;stop-opacity:1"
         offset="0" />
      <stop
         id="stop3641"
         style="stop-color:#dcdcdc;stop-opacity:1"
         offset="1" />
    </linearGradient>
    <linearGradient
       x1="45.447727"
       y1="92.539597"
       x2="45.447727"
       y2="7.0165396"
       id="ButtonShadow"
       gradientUnits="userSpaceOnUse"
       gradientTransform="scale(1.0058652,0.994169)">
      <stop
         id="stop3750"
         style="stop-color:#000000;stop-opacity:1"
         offset="0" />
      <stop
         id="stop3752"
         style="stop-color:#000000;stop-opacity:0.58823532"
         offset="1" />
    </linearGradient>
    <linearGradient
       id="linearGradient3737">
      <stop
         id="stop3739"
         style="stop-color:#ffffff;stop-opacity:1"
         offset="0" />
      <stop
         id="stop3741"
         style="stop-color:#ffffff;stop-opacity:0"
         offset="1" />
    </linearGradient>
    <linearGradient
       id="linearGradient3700">
      <stop
         id="stop3702"
         style="stop-color:#2276c5;stop-opacity:1"
         offset="0" />
      <stop
         id="stop3704"
         style="stop-color:#68baf4;stop-opacity:1"
         offset="1" />
    </linearGradient>
    <filter
       color-interpolation-filters="sRGB"
       id="filter3174">
      <feGaussianBlur
         id="feGaussianBlur3176"
         stdDeviation="1.71" />
    </filter>
    <linearGradient
       x1="36.357143"
       y1="6"
       x2="36.357143"
       y2="63.893143"
       id="linearGradient3188"
       xlink:href="#linearGradient3737"
       gradientUnits="userSpaceOnUse" />
    <radialGradient
       cx="48"
       cy="90.171875"
       r="42"
       fx="48"
       fy="90.171875"
       id="radialGradient3619"
       xlink:href="#linearGradient3737"
       gradientUnits="userSpaceOnUse"
       gradientTransform="matrix(1.1573129,0,0,0.99590774,-7.5510206,0.19713193)" />
    <linearGradient
       x1="48"
       y1="90"
       x2="48"
       y2="5.9877172"
       id="linearGradient2843"
       xlink:href="#linearGradient3700"
       gradientUnits="userSpaceOnUse"
       gradientTransform="translate(0,100)" />
    <clipPath
       id="clipPath3625">
      <path
         d="M 0,0 0,96 96,96 96,0 0,0 z m 12,6 72,0 c 3.324,0 6,2.676 6,6 l 0,72 c 0,3.324 -2.676,6 -6,6 L 12,90 C 8.676,90 6,87.324 6,84 L 6,12 C 6,8.676 8.676,6 12,6 z"
         id="path3627"
         style="fill:#ffffff;fill-opacity:1;stroke:none" />
    </clipPath>
    <linearGradient
       x1="44.512066"
       y1="6"
       x2="44.512066"
       y2="90.015434"
       id="linearGradient3643"
       xlink:href="#linearGradient3637"
       gradientUnits="userSpaceOnUse" />
    <clipPath
       id="clipPath3649">
      <rect
         width="76"
         height="76"
         rx="4"
         ry="4"
         x="10"
         y="10"
         id="rect3651"
         style="fill:#ffffff;fill-opacity:1;fill-rule:nonzero;stroke:none" />
    </clipPath>
    <filter
       color-interpolation-filters="sRGB"
       id="filter3657">
      <feGaussianBlur
         id="feGaussianBlur3659"
         stdDeviation="1.14" />
    </filter>
    <linearGradient
       id="linearGradient4081">
      <stop
         id="stop4083"
         style="stop-color:#aaaaaa;stop-opacity:1"
         offset="0" />
      <stop
         id="stop4085"
         style="stop-color:#f0f0f0;stop-opacity:1"
         offset="1" />
    </linearGradient>
    <linearGradient
       x1="56.692215"
       y1="66.530067"
       x2="56.692215"
       y2="26.510876"
       id="linearGradient3038"
       xlink:href="#linearGradient4081"
       gradientUnits="userSpaceOnUse"
       gradientTransform="translate(0,-80)" />
    <linearGradient
       id="linearGradient4081-9">
      <stop
         id="stop4083-2"
         style="stop-color:#aaaaaa;stop-opacity:1"
         offset="0" />
      <stop
         id="stop4085-0"
         style="stop-color:#f0f0f0;stop-opacity:1"
         offset="1" />
    </linearGradient>
    <linearGradient
       x1="49"
       y1="66.11824"
       x2="49"
       y2="28"
       id="linearGradient2923"
       xlink:href="#linearGradient4081-9"
       gradientUnits="userSpaceOnUse"
       gradientTransform="matrix(-1,0,0,1,26,-90)" />
    <linearGradient
       x1="11.347495"
       y1="5.999567"
       x2="11.347495"
       y2="16.013096"
       id="StandardGradient-8"
       gradientUnits="userSpaceOnUse"
       gradientTransform="translate(-3,-2.9995677)">
      <stop
         id="stop3177-6"
         style="stop-color:#000000;stop-opacity:0.86274511"
         offset="0" />
      <stop
         id="stop3179-8"
         style="stop-color:#000000;stop-opacity:0.47058824"
         offset="1" />
    </linearGradient>
    <linearGradient
       x1="29.826593"
       y1="51.954468"
       x2="65.693901"
       y2="51.954468"
       id="linearGradient2941"
       xlink:href="#StandardGradient-8"
       gradientUnits="userSpaceOnUse"
       gradientTransform="translate(79.953125,3.046875)" />
    <linearGradient
       x1="55"
       y1="72"
       x2="55"
       y2="23.989584"
       id="linearGradient3722"
       xlink:href="#linearGradient4081"
       gradientUnits="userSpaceOnUse" />
    <linearGradient
       inkscape:collect="always"
       xlink:href="#StandardGradient-8"
       id="linearGradient3054"
       gradientUnits="userSpaceOnUse"
       gradientTransform="translate(79.953125,3.046875)"
       x1="29.826593"
       y1="51.954468"
       x2="65.693901"
       y2="51.954468" />
    <linearGradient
       inkscape:collect="always"
       xlink:href="#linearGradient4081"
       id="linearGradient3057"
       gradientUnits="userSpaceOnUse"
       x1="55"
       y1="72"
       x2="55"
       y2="23.989584" />
    <linearGradient
       inkscape:collect="always"
       xlink:href="#linearGradient4081-9"
       id="linearGradient3061"
       gradientUnits="userSpaceOnUse"
       gradientTransform="matrix(-1,0,0,1,26,-90)"
       x1="49"
       y1="66.11824"
       x2="49"
       y2="28" />
    <linearGradient
       inkscape:collect="always"
       xlink:href="#linearGradient4081"
       id="linearGradient3065"
       gradientUnits="userSpaceOnUse"
       gradientTransform="translate(0,-80)"
       x1="56.692215"
       y1="66.530067"
       x2="56.692215"
       y2="26.510876" />
    <linearGradient
       inkscape:collect="always"
       xlink:href="#linearGradient3700"
       id="linearGradient3081"
       gradientUnits="userSpaceOnUse"
       gradientTransform="translate(0,100)"
       x1="48"
       y1="90"
       x2="48"
       y2="5.9877172" />
    <radialGradient
       inkscape:collect="always"
       xlink:href="#linearGradient3737"
       id="radialGradient3084"
       gradientUnits="userSpaceOnUse"
       gradientTransform="matrix(1.1573129,0,0,0.99590774,-7.5510206,0.19713193)"
       cx="48"
       cy="90.171875"
       fx="48"
       fy="90.171875"
       r="42" />
    <linearGradient
       inkscape:collect="always"
       xlink:href="#linearGradient3737"
       id="linearGradient3087"
       gradientUnits="userSpaceOnUse"
       x1="36.357143"
       y1="6"
       x2="36.357143"
       y2="63.893143" />
    <linearGradient
       inkscape:collect="always"
       xlink:href="#linearGradient3637"
       id="linearGradient3090"
       gradientUnits="userSpaceOnUse"
       x1="44.512066"
       y1="6"
       x2="44.512066"
       y2="90.015434" />
    <linearGradient
       gradientTransform="matrix(0,-1,1,0,0,96)"
       gradientUnits="userSpaceOnUse"
       xlink:href="#linearGradient4081-4"
       id="linearGradient3799"
       y2="48"
       x2="88"
       y1="48"
       x1="8" />
    <linearGradient
       id="linearGradient4081-4">
      <stop
         offset="0"
         style="stop-color:#aaaaaa;stop-opacity:1"
         id="stop4083-7" />
      <stop
         offset="1"
         style="stop-color:#f0f0f0;stop-opacity:1"
         id="stop4085-7" />
    </linearGradient>
  </defs>
  <g
     id="layer2"
     style="display:inline">
    <rect
       width="86"
       height="85"
       rx="6"
       ry="6"
       x="5"
       y="7"
       clip-path="url(#clipPath3625)"
       id="rect3745"
       style="opacity:0.9;fill:url(#ButtonShadow);fill-opacity:1;fill-rule:nonzero;stroke:none;filter:url(#filter3174)" />
  </g>
  <rect
     style="opacity:0.7;fill:#000000;fill-opacity:1;fill-rule:nonzero;stroke:none"
     id="rect2419"
     y="6"
     x="6"
     ry="6"
     rx="6"
     height="84"
     width="84" />
  <path
     inkscape:connector-curvature="0"
     style="opacity:0.07999998;fill:#000000;fill-opacity:1;fill-rule:nonzero;stroke:none"
     id="rect3726"
     d="m 14,10 c -2.216,0 -4,1.784 -4,4 l 0,68 c 0,2.216 1.784,4 4,4 l 68,0 c 2.216,0 4,-1.784 4,-4 l 0,-68 c 0,-2.216 -1.784,-4 -4,-4 l -68,0 z m 0,3.0625 68,0 c 0.578769,0 0.9375,0.358731 0.9375,0.9375 l 0,68 c 0,0.578769 -0.358731,0.9375 -0.9375,0.9375 l -68,0 c -0.578769,0 -0.9375,-0.358731 -0.9375,-0.9375 l 0,-68 c 0,-0.578769 0.358731,-0.9375 0.9375,-0.9375 z" />
  <path
     inkscape:connector-curvature="0"
     style="fill:url(#linearGradient3090);fill-opacity:1;fill-rule:nonzero;stroke:none"
     id="rect3629"
     d="M 12,6 C 8.676,6 6,8.676 6,12 l 0,72 c 0,3.324 2.676,6 6,6 l 72,0 c 3.324,0 6,-2.676 6,-6 L 90,12 C 90,8.676 87.324,6 84,6 L 12,6 z m 2,4 68,0 c 2.216,0 4,1.784 4,4 l 0,68 c 0,2.216 -1.784,4 -4,4 l -68,0 c -2.216,0 -4,-1.784 -4,-4 l 0,-68 c 0,-2.216 1.784,-4 4,-4 z" />
  <path
     inkscape:connector-curvature="0"
     style="fill:url(#linearGradient3087);fill-opacity:1;fill-rule:nonzero;stroke:none"
     id="rect3728"
     d="M 12,6 C 8.676,6 6,8.676 6,12 l 0,2 0,68 0,2 c 0,0.334721 0.04135,0.6507 0.09375,0.96875 0.0487,0.295596 0.09704,0.596915 0.1875,0.875 0.00988,0.03038 0.020892,0.0636 0.03125,0.09375 0.098865,0.287771 0.2348802,0.547452 0.375,0.8125 0.1445918,0.273507 0.3156161,0.535615 0.5,0.78125 0.1843839,0.245635 0.3737765,0.473472 0.59375,0.6875 0.439947,0.428056 0.94291,0.814526 1.5,1.09375 0.278545,0.139612 0.5734731,0.246947 0.875,0.34375 -0.2562018,-0.100222 -0.4867109,-0.236272 -0.71875,-0.375 -0.00741,-0.0044 -0.023866,0.0045 -0.03125,0 -0.031933,-0.0193 -0.062293,-0.04251 -0.09375,-0.0625 -0.120395,-0.0767 -0.2310226,-0.163513 -0.34375,-0.25 -0.1061728,-0.0808 -0.2132809,-0.161112 -0.3125,-0.25 C 8.4783201,88.557317 8.3087904,88.373362 8.15625,88.1875 8.0486711,88.057245 7.9378561,87.922215 7.84375,87.78125 7.818661,87.74287 7.805304,87.69538 7.78125,87.65625 7.716487,87.553218 7.6510225,87.451733 7.59375,87.34375 7.4927417,87.149044 7.3880752,86.928049 7.3125,86.71875 7.30454,86.69694 7.288911,86.6782 7.28125,86.65625 7.2494249,86.5643 7.2454455,86.469419 7.21875,86.375 7.1884177,86.268382 7.1483606,86.171969 7.125,86.0625 7.0521214,85.720988 7,85.364295 7,85 L 7,83 7,15 7,13 C 7,10.218152 9.2181517,8 12,8 l 2,0 68,0 2,0 c 2.781848,0 5,2.218152 5,5 l 0,2 0,68 0,2 c 0,0.364295 -0.05212,0.720988 -0.125,1.0625 -0.04415,0.206893 -0.08838,0.397658 -0.15625,0.59375 -0.0077,0.02195 -0.0233,0.04069 -0.03125,0.0625 -0.06274,0.173739 -0.138383,0.367449 -0.21875,0.53125 -0.04158,0.0828 -0.07904,0.169954 -0.125,0.25 -0.0546,0.09721 -0.126774,0.18835 -0.1875,0.28125 -0.09411,0.140965 -0.204921,0.275995 -0.3125,0.40625 -0.143174,0.17445 -0.303141,0.346998 -0.46875,0.5 -0.01117,0.0102 -0.01998,0.02115 -0.03125,0.03125 -0.138386,0.125556 -0.285091,0.234436 -0.4375,0.34375 -0.102571,0.07315 -0.204318,0.153364 -0.3125,0.21875 -0.0074,0.0045 -0.02384,-0.0044 -0.03125,0 -0.232039,0.138728 -0.462548,0.274778 -0.71875,0.375 0.301527,-0.0968 0.596455,-0.204138 0.875,-0.34375 0.55709,-0.279224 1.060053,-0.665694 1.5,-1.09375 0.219973,-0.214028 0.409366,-0.441865 0.59375,-0.6875 0.184384,-0.245635 0.355408,-0.507743 0.5,-0.78125 0.14012,-0.265048 0.276135,-0.524729 0.375,-0.8125 0.01041,-0.03078 0.02133,-0.06274 0.03125,-0.09375 0.09046,-0.278085 0.1388,-0.579404 0.1875,-0.875 C 89.95865,84.6507 90,84.334721 90,84 l 0,-2 0,-68 0,-2 C 90,8.676 87.324,6 84,6 L 12,6 z" />
  <path
     inkscape:connector-curvature="0"
     style="opacity:0.6;fill:url(#radialGradient3084);fill-opacity:1;fill-rule:nonzero;stroke:none"
     id="path3615"
     d="M 12,90 C 8.676,90 6,87.324 6,84 L 6,82 6,14 6,12 c 0,-0.334721 0.04135,-0.6507 0.09375,-0.96875 0.0487,-0.295596 0.09704,-0.596915 0.1875,-0.875 C 6.29113,10.12587 6.302142,10.09265 6.3125,10.0625 6.411365,9.774729 6.5473802,9.515048 6.6875,9.25 6.8320918,8.976493 7.0031161,8.714385 7.1875,8.46875 7.3718839,8.223115 7.5612765,7.995278 7.78125,7.78125 8.221197,7.353194 8.72416,6.966724 9.28125,6.6875 9.559795,6.547888 9.8547231,6.440553 10.15625,6.34375 9.9000482,6.443972 9.6695391,6.580022 9.4375,6.71875 c -0.00741,0.0044 -0.023866,-0.0045 -0.03125,0 -0.031933,0.0193 -0.062293,0.04251 -0.09375,0.0625 -0.120395,0.0767 -0.2310226,0.163513 -0.34375,0.25 -0.1061728,0.0808 -0.2132809,0.161112 -0.3125,0.25 C 8.4783201,7.442683 8.3087904,7.626638 8.15625,7.8125 8.0486711,7.942755 7.9378561,8.077785 7.84375,8.21875 7.818661,8.25713 7.805304,8.30462 7.78125,8.34375 7.716487,8.446782 7.6510225,8.548267 7.59375,8.65625 7.4927417,8.850956 7.3880752,9.071951 7.3125,9.28125 7.30454,9.30306 7.288911,9.3218 7.28125,9.34375 7.2494249,9.4357 7.2454455,9.530581 7.21875,9.625 7.1884177,9.731618 7.1483606,9.828031 7.125,9.9375 7.0521214,10.279012 7,10.635705 7,11 l 0,2 0,68 0,2 c 0,2.781848 2.2181517,5 5,5 l 2,0 68,0 2,0 c 2.781848,0 5,-2.218152 5,-5 l 0,-2 0,-68 0,-2 C 89,10.635705 88.94788,10.279012 88.875,9.9375 88.83085,9.730607 88.78662,9.539842 88.71875,9.34375 88.71105,9.3218 88.69545,9.30306 88.6875,9.28125 88.62476,9.107511 88.549117,8.913801 88.46875,8.75 88.42717,8.6672 88.38971,8.580046 88.34375,8.5 88.28915,8.40279 88.216976,8.31165 88.15625,8.21875 88.06214,8.077785 87.951329,7.942755 87.84375,7.8125 87.700576,7.63805 87.540609,7.465502 87.375,7.3125 87.36383,7.3023 87.35502,7.29135 87.34375,7.28125 87.205364,7.155694 87.058659,7.046814 86.90625,6.9375 86.803679,6.86435 86.701932,6.784136 86.59375,6.71875 c -0.0074,-0.0045 -0.02384,0.0044 -0.03125,0 -0.232039,-0.138728 -0.462548,-0.274778 -0.71875,-0.375 0.301527,0.0968 0.596455,0.204138 0.875,0.34375 0.55709,0.279224 1.060053,0.665694 1.5,1.09375 0.219973,0.214028 0.409366,0.441865 0.59375,0.6875 0.184384,0.245635 0.355408,0.507743 0.5,0.78125 0.14012,0.265048 0.276135,0.524729 0.375,0.8125 0.01041,0.03078 0.02133,0.06274 0.03125,0.09375 0.09046,0.278085 0.1388,0.579404 0.1875,0.875 C 89.95865,11.3493 90,11.665279 90,12 l 0,2 0,68 0,2 c 0,3.324 -2.676,6 -6,6 l -72,0 z" />
  <path
     inkscape:connector-curvature="0"
     style="opacity:0.16000001;fill:#000000;fill-opacity:1;fill-rule:nonzero;stroke:none"
     id="path3709"
     d="m 14.089286,10 c -2.216,0 -4,1.784 -4,4 l 0,68 c 0,2.216 1.784,4 4,4 l 68,0 c 2.216,0 4,-1.784 4,-4 l 0,-68 c 0,-2.216 -1.784,-4 -4,-4 l -68,0 z m 0,2 68,0 c 1.140301,0 2,0.859699 2,2 l 0,68 c 0,1.140301 -0.859699,2 -2,2 l -68,0 c -1.140301,0 -2,-0.859699 -2,-2 l 0,-68 c 0,-1.140301 0.859699,-2 2,-2 z" />
  <path
     inkscape:connector-curvature="0"
     style="opacity:0.36000001;fill:#000000;fill-opacity:1;fill-rule:nonzero;stroke:none"
     id="path3707"
     d="m 14,10 c -2.216,0 -4,1.784 -4,4 l 0,68 c 0,2.216 1.784,4 4,4 l 68,0 c 2.216,0 4,-1.784 4,-4 l 0,-68 c 0,-2.216 -1.784,-4 -4,-4 l -68,0 z m 0,1 68,0 c 1.673848,0 3,1.326152 3,3 l 0,68 c 0,1.673848 -1.326152,3 -3,3 l -68,0 c -1.673848,0 -3,-1.326152 -3,-3 l 0,-68 c 0,-1.673848 1.326152,-3 3,-3 z" />
  <g
     style="display:inline"
     id="layer1"
     transform="matrix(0.57916667,0,0,0.57916667,20.2005,63.478667)">
    <path
       style="opacity:0.3;fill:#ffffff;fill-opacity:1;stroke:none"
       id="path2980"
       transform="matrix(0.8,0,0,0.8,9.6,-64.4)"
       d="M 88,48 A 40,40 0 1 1 48.000001,8 L 48,48 z"
       inkscape:connector-curvature="0" />
    <path
       style="opacity:0.07999998;fill:#000000;fill-opacity:1;stroke:none"
       id="path3816"
       d="M 48,-70 C 23.184111,-70 3,-49.815889 3,-25 3,-0.1841111 23.184111,20 48,20 72.815889,20 93,-0.1841111 93,-25 93,-49.815889 72.815889,-70 48,-70 z m -5.25,16.53125 C 41.707608,-52.2456 41,-50.718669 41,-49 l 0,11 0,7 0,0.75 c -1.134959,1.420024 -2.03125,3.183423 -2.03125,5.28125 0,4.9432 4.094576,8.96875 9.03125,8.96875 2.07549,0 3.829101,-0.897036 5.25,-2 l 0.75,0 7,0 7,0 c 3.841346,0 7,-3.158654 7,-7 0,-3.841346 -3.158654,-7 -7,-7 l -7,0 -6,0 0,-6 0,-11 c 0,-1.718669 -0.707608,-3.2456 -1.75,-4.46875 C 66.773872,-50.998141 77,-39.254727 77,-25 77,-8.9420491 64.057951,4 48,4 31.942049,4 19,-8.9420491 19,-25 c 0,-0.533693 0.0078,-1.007077 0.03125,-1.46875 0.688076,-13.574169 10.659578,-24.619982 23.71875,-27 z"
       inkscape:connector-curvature="0" />
    <path
       style="opacity:0.1;fill:#000000;fill-opacity:1;stroke:none"
       id="path3812"
       d="M 48,-69 C 23.724718,-69 4,-49.275282 4,-25 4,-0.72471846 23.724718,19 48,19 72.275282,19 92,-0.72471846 92,-25 92,-49.275282 72.275282,-69 48,-69 z m 0,14 c 16.595359,0 30,13.404641 30,30 C 78,-8.4046413 64.595359,5 48,5 31.404641,5 18,-8.4046413 18,-25 c 0,-0.541728 0.0065,-1.043858 0.03125,-1.53125 C 18.835459,-42.396462 31.923145,-55 48,-55 z m 0,0 c -3.295239,0 -6,2.704761 -6,6 l 0,11 0,7 0,1.03125 c -1.162124,1.342482 -2.03125,3.025114 -2.03125,5 0,4.392466 3.635924,7.96875 8.03125,7.96875 1.963771,0 3.648521,-0.860499 5,-2 l 1,0 7,0 7,0 c 3.295239,0 6,-2.704761 6,-6 0,-3.295239 -2.704761,-6 -6,-6 l -7,0 -7,0 0,-7 0,-11 c 0,-3.295239 -2.704761,-6 -6,-6 z"
       inkscape:connector-curvature="0" />
    <path
       style="opacity:0.15;fill:#000000;fill-opacity:1;stroke:none"
       id="path3808"
       d="M 48,-68 C 24.264718,-68 5,-48.735282 5,-25 5,-1.2647181 24.264718,18 48,18 71.735282,18 91,-1.2647181 91,-25 91,-48.735282 71.735282,-68 48,-68 z m 0,12 c 17.133789,0 31,13.866211 31,31 C 79,-7.8662109 65.133789,6 48,6 30.866211,6 17,-7.8662109 17,-25 c 0,-0.547948 0.0051,-1.078368 0.03125,-1.59375 C 17.861865,-42.979885 31.401272,-56 48,-56 z m 0,2 c -2.751593,0 -5,2.248407 -5,5 l 0,11 0,7 0,1.3125 c -1.195371,1.241955 -2.03125,2.860717 -2.03125,4.71875 0,3.842707 3.175296,6.96875 7.03125,6.96875 1.862299,0 3.499062,-0.819443 4.75,-2 l 1.25,0 7,0 7,0 c 2.751593,0 5,-2.248407 5,-5 0,-2.751593 -2.248407,-5 -5,-5 l -7,0 -7,0 -1,0 0,-1 0,-7 0,-11 c 0,-2.751593 -2.248407,-5 -5,-5 z m 0,28 c 0.565246,0 1,0.434754 1,1 0,0.565246 -0.434754,1 -1,1 -0.565246,0 -1,-0.434754 -1,-1 0,-0.565246 0.434754,-1 1,-1 z"
       inkscape:connector-curvature="0" />
    <path
       style="opacity:0.3;fill:#000000;fill-opacity:1;stroke:none"
       id="path3802"
       d="M 48,-67 C 24.804041,-67 6,-48.195959 6,-25 6,-1.804041 24.804041,17 48,17 71.195959,17 90,-1.804041 90,-25 90,-48.195959 71.195959,-67 48,-67 z m 0,10 c 17.673112,0 32,14.326888 32,32 C 80,-7.326888 65.673112,7 48,7 30.326888,7 16,-7.326888 16,-25 c 0,-0.552285 0.0036,-1.110836 0.03125,-1.65625 C 16.88831,-43.564086 30.879173,-57 48,-57 z m 0,4 c -2.216,0 -4,1.784 -4,4 l 0,11 0,7 0,1.59375 c -1.24023,1.093314 -2.03125,2.666085 -2.03125,4.4375 0,3.295411 2.710954,5.96875 6.03125,5.96875 1.779776,0 3.371149,-0.77968 4.46875,-2 L 54,-21 l 7,0 7,0 c 2.216,0 4,-1.784 4,-4 0,-2.216 -1.784,-4 -4,-4 l -7,0 -7,0 -1.59375,0 C 52.276212,-29.140395 52.142932,-29.278805 52,-29.40625 L 52,-31 l 0,-7 0,-11 c 0,-2.216 -1.784,-4 -4,-4 z m 0,26 c 1.104569,0 2,0.895431 2,2 0,1.104569 -0.895431,2 -2,2 -1.104569,0 -2,-0.895431 -2,-2 0,-1.104569 0.895431,-2 2,-2 z"
       inkscape:connector-curvature="0" />
    <path
       style="fill:url(#linearGradient3799);fill-opacity:1;stroke:none"
       id="path2976"
       transform="translate(0,-74)"
       d="M 48,6 C 24.804041,6 6,24.804041 6,48 6,71.195959 24.804041,90 48,90 71.195959,90 90,71.195959 90,48 90,24.804041 71.195959,6 48,6 z m 0,10 C 65.673112,16 80,30.326888 80,48 80,65.673112 65.673112,80 48,80 30.326888,80 16,65.673112 16,48 16,47.447715 16.0036,46.889164 16.03125,46.34375 16.88831,29.435914 30.879173,16 48,16 z m 0,4 c -2.216,0 -4,1.784 -4,4 l 0,11 0,7 0,1.59375 c -1.24023,1.093314 -2.03125,2.666085 -2.03125,4.4375 C 41.96875,51.326661 44.679704,54 48,54 c 1.779776,0 3.371149,-0.77968 4.46875,-2 L 54,52 l 7,0 7,0 c 2.216,0 4,-1.784 4,-4 0,-2.216 -1.784,-4 -4,-4 l -7,0 -7,0 -1.59375,0 C 52.276212,43.859605 52.142932,43.721195 52,43.59375 L 52,42 52,35 52,24 c 0,-2.216 -1.784,-4 -4,-4 z m 0,26 c 1.104569,0 2,0.895431 2,2 0,1.104569 -0.895431,2 -2,2 -1.104569,0 -2,-0.895431 -2,-2 0,-1.104569 0.895431,-2 2,-2 z"
       inkscape:connector-curvature="0" />
    <path
       style="opacity:0.6;fill:#ffffff;fill-opacity:1;stroke:none"
       id="path3818"
       transform="translate(0,-74)"
       d="M 48,6 C 24.804041,6 6,24.804041 6,48 6,48.336195 6.0233936,48.665694 6.03125,49 6.5654465,26.268685 25.140236,8 48,8 70.859764,8 89.434553,26.268685 89.96875,49 89.976606,48.665694 90,48.336195 90,48 90,24.804041 71.195959,6 48,6 z m 0,14 c -2.216,0 -4,1.784 -4,4 l 0,2 c 0,-2.216 1.784,-4 4,-4 2.216,0 4,1.784 4,4 l 0,-2 c 0,-2.216 -1.784,-4 -4,-4 z m -4,23.59375 c -1.24023,1.093314 -2.03125,2.666085 -2.03125,4.4375 0,0.354405 0.03366,0.693786 0.09375,1.03125 C 42.29375,47.691771 42.992313,46.482068 44,45.59375 L 44,44 44,43.59375 z m 8,0 L 52,44 52,45.59375 C 52.142932,45.721195 52.276212,45.859605 52.40625,46 L 54,46 l 7,0 7,0 c 1.868974,0 3.400465,1.273103 3.84375,3 C 71.926058,48.679355 72,48.347026 72,48 72,45.784 70.216,44 68,44 l -7,0 -7,0 -1.59375,0 C 52.276212,43.859605 52.142932,43.721195 52,43.59375 z M 16.03125,49 C 16.02412,49.33383 16,49.666467 16,50 16,67.673112 30.326888,82 48,82 65.673112,82 80,67.673112 80,50 80,49.666467 79.978882,49.331075 79.96875,49 79.442029,66.211824 65.339579,80 48,80 30.660421,80 16.557971,66.211824 16.03125,49 z m 30.25,0 C 46.110492,49.294544 46,49.635035 46,50 c 0,1.104569 0.895431,2 2,2 1.104569,0 2,-0.895431 2,-2 0,-0.364965 -0.110492,-0.705456 -0.28125,-1 -0.346043,0.596896 -0.979146,1 -1.71875,1 -0.739604,0 -1.372707,-0.403104 -1.71875,-1 z"
       inkscape:connector-curvature="0" />
  </g>
</svg>
