/* XPM */
static char *desktop[] = {
/* columns rows colors chars-per-pixel */
"48 48 243 2",
"   c #000000",
".  c #0A0A0A",
"X  c #0F161F",
"o  c #131314",
"O  c #12171F",
"+  c #1B1B1B",
"@  c #1F1F20",
"#  c #161F2A",
"$  c #1D222B",
"%  c #152335",
"&  c #12253E",
"*  c #242424",
"=  c #26292D",
"-  c #2A2B2C",
";  c #202935",
":  c #2E343C",
">  c #333333",
",  c #3D3D3D",
"<  c #4F7E3A",
"1  c #122640",
"2  c #182640",
"3  c #132946",
"4  c #1A2B43",
"5  c #163256",
"6  c #363D46",
"7  c #313B4A",
"8  c #213652",
"9  c #2D3D51",
"0  c #20395C",
"q  c #0D2D66",
"w  c #0E2E69",
"e  c #0F316A",
"r  c #103167",
"t  c #1A3A64",
"y  c #13336C",
"u  c #1C3F6B",
"i  c #153570",
"p  c #163A74",
"a  c #1E3B71",
"s  c #173D7A",
"d  c #183E7C",
"f  c #213E73",
"g  c #3F4042",
"h  c #39404A",
"j  c #364354",
"k  c #3D4653",
"l  c #34455C",
"z  c #1F4474",
"x  c #18417D",
"c  c #304666",
"v  c #224574",
"b  c #2C4B74",
"n  c #214A7D",
"m  c #3A5374",
"M  c #36537C",
"N  c #434445",
"B  c #4A4B4B",
"V  c #545455",
"C  c #545659",
"Z  c #5C5C5C",
"A  c #4E7B41",
"S  c #5E5F60",
"D  c #515E6F",
"F  c #656565",
"G  c #6D6D6D",
"H  c #767676",
"J  c #797979",
"K  c #97201D",
"L  c #902828",
"P  c #BE512C",
"I  c #B45537",
"U  c #997738",
"Y  c #A1762C",
"T  c #77AC51",
"R  c #73A559",
"E  c #D9AD1E",
"W  c #C4A228",
"Q  c #A28149",
"!  c #B28E4C",
"~  c #8A867A",
"^  c #A8987B",
"/  c #C19A55",
"(  c #CCA86A",
")  c #C2A672",
"_  c #D7B477",
"`  c #D2B179",
"'  c #143B84",
"]  c #153F8C",
"[  c #17418D",
"{  c #18438E",
"}  c #174393",
"|  c #1A4694",
" . c #1D4897",
".. c #1E4C9A",
"X. c #1F509F",
"o. c #234D84",
"O. c #244F8A",
"+. c #245087",
"@. c #24508A",
"#. c #3D5880",
"$. c #305589",
"%. c #204A93",
"&. c #214E9C",
"*. c #265491",
"=. c #285694",
"-. c #22509F",
";. c #2B5C9E",
":. c #365F95",
">. c #335D98",
",. c #3D649C",
"<. c #1F51A0",
"1. c #2454A3",
"2. c #2758A7",
"3. c #2A5DA2",
"4. c #2257A8",
"5. c #2459AA",
"6. c #295CAB",
"7. c #265EB1",
"8. c #295FB0",
"9. c #2B60AD",
"0. c #3D66A2",
"q. c #3D68A7",
"w. c #3465AD",
"e. c #3B67A9",
"r. c #3E6BAB",
"t. c #2761B3",
"y. c #2C63B4",
"u. c #2F68B1",
"i. c #2B66B9",
"p. c #2E69BC",
"a. c #3067B5",
"s. c #316BB3",
"d. c #3A6AB0",
"f. c #326BBB",
"g. c #396EB9",
"h. c #3D72BC",
"j. c #415B84",
"k. c #405E8A",
"l. c #406696",
"z. c #426599",
"x. c #576F95",
"c. c #577095",
"v. c #597296",
"b. c #5C759A",
"n. c #5E7A9E",
"m. c #737A85",
"M. c #657C9D",
"N. c #4066A1",
"B. c #426AA4",
"V. c #4A6EA1",
"C. c #436CA9",
"Z. c #4670AC",
"A. c #4A73AE",
"S. c #5F7CA0",
"D. c #5678AB",
"F. c #5C7EAF",
"G. c #466FB3",
"H. c #4371B5",
"J. c #4B75B3",
"K. c #4E7AB7",
"L. c #4174BB",
"P. c #4D7CBC",
"I. c #5177B6",
"U. c #617EA3",
"Y. c #2E6DC1",
"T. c #306FC2",
"R. c #3372C4",
"E. c #3B75C2",
"W. c #3D79C6",
"Q. c #3475CA",
"!. c #367ACE",
"~. c #3B7BCC",
"^. c #397DD2",
"/. c #4277C0",
"(. c #437AC5",
"). c #447EC8",
"_. c #7F8899",
"`. c #5E87BE",
"'. c #6381A5",
"]. c #6488B7",
"[. c #6789BA",
"{. c #708EBD",
"}. c #7390B7",
"|. c #3B81D6",
" X c #3D85DA",
".X c #3F88DE",
"XX c #4D83C7",
"oX c #4C83CC",
"OX c #5383C6",
"+X c #5A86C4",
"@X c #5688C6",
"#X c #5B89C7",
"$X c #5789CB",
"%X c #5C8CCB",
"&X c #408ADF",
"*X c #5E92D1",
"=X c #648BC6",
"-X c #6C91C7",
";X c #6993CD",
":X c #7697C7",
">X c #7299CF",
",X c #799CCC",
"<X c #6A98D4",
"1X c #779DD0",
"2X c #7C9FD1",
"3X c #7DA2D4",
"4X c #418CE2",
"5X c #838383",
"6X c #8C8C8C",
"7X c #808793",
"8X c #939394",
"9X c #9E9E9E",
"0X c #8B95A7",
"qX c #9399A3",
"wX c #999FA6",
"eX c #8095B2",
"rX c #8F9EB3",
"tX c #9FA1A5",
"yX c #A3A4A4",
"uX c #ACACAC",
"iX c #A3AAB5",
"pX c #B6B6B6",
"aX c #B4B7BC",
"sX c #B7B9BA",
"dX c #BCBCBC",
"fX c #80A5D7",
"gX c #81A7D8",
"hX c #83AADC",
"jX c #86AEE1",
"kX c #87B0E3",
"lX c #89B2E5",
"zX c #8BB6E9",
"xX c #8CB8EB",
"cX c #BFC0C2",
"vX c #BDC4CE",
"bX c #C3C3C3",
"nX c #CCCCCC",
"mX c #D3D3D3",
"MX c #DBDBDB",
"NX c #E4E4E4",
"BX c #EDEDED",
"VX c #F7F7F7",
"CX c None",
/* pixels */
"CXCXCXCXCXCXCXCXCXCXCXCXCXCXCXCXCXCXCXCXCXCXCXCXCXCXCXCXCXCXCXCXCXCXCXCXCXCXCXCXCXCXCXCXCXCXCXCX",
"CXCXCXCXCXCXCXCXCXCXCXCXCXCXCXCXCXCXCXCXCXCXCXCXCXCXCXCXCXCXCXCXCXCXCXCXCXCXCXCXCXCXCXCXCXCXCXCX",
"CXCXCXCXCXCXCXCXCXCXCXCXCXCXCXCXCXCXCXCXCXCXCXCXCXCXCXCXCXCXCXCXCXCXCXCXCXCXCXCXCXCXCXCXCXCXCXCX",
"CXCXCXCXmXBXVXVXVXVXVXVXVXVXVXVXVXVXVXVXVXVXVXVXVXVXVXVXVXVXVXVXVXVXVXVXVXVXVXVXVXVXBXmXCXCXCXCX",
"CXCXCXbXBXNXNXNXNXNXNXNXNXNXNXNXNXNXNXNXNXNXNXBXBXBXBXBXVXBXBXBXBXBXBXVXBXVXBXBXBXBXBXVXbXCXCXCX",
"CXCXCXNXNXNXNXNXNXNXNXMXNXNXNXNXNXNXNXNXNXNXNXBXVXBXBXBXBXBXBXBXBXBXBXBXBXBXBXBXVXBXBXBXNXCXCXCX",
"CXCXCXBXMXNXMXdXuXuXuXuXyXuXuXuXuXuXuXuXuXuXuXuXuXuXuXuXuXuXuXuXuXuXuXuXuXuXuXuXbXNXBXBXBXCXCXCX",
"CXCXCXNXNXNXbX0Xf r y y y y y y i y y y y y y y y y y y y y y i y w w r r w w f 0XnXBXBXNXCXCXCX",
"CXCXCXNXNXMXpXf ' ] ] ] [ [ [ [ [ [ [ [ [ ] ] %.3X%X$X*X$X*X*X$X$X*X$X*X$X$X$X(.f uXBXBXNXCXCXCX",
"CXCXCXNXMXMXuXy ] } } } } | | | | } | | | | | } <X;X*X*X*X*X*X*X*X;X*X*X*X*X*X%Xw pXNXNXNXCXCXCX",
"CXCXCXNXMXMXpXy [ } ~ ) ^ m.| | | | | | | | | | I.<X*X*X*X*X*X*X*X%X*X*X*X*X$X$Xw pXNXbXMXCXCXCX",
"CXCXCXNXMXMXpXy [ } ` _ _ ` | | | | | | | | | | &.3X%X;X%X%X*X*X*X%X%X%X$X*X*XoXq uXdXmXdXNX, > ",
"CXCXCXNXMXMXpXr [ } ( / / ( | | | | | | | | | | } -X%X%X%X=X%X%X%X%X%X%X%X#X%X]._.bXMXnXmXdX9XCX",
"CXCXCXNXmXMXdXy [ } Q ! ! Q | | | %.| | ..| | .. .A.<X%X%X%X%X%X%X#X%X#X#X=X}.bXuXuXMXpX8XG 6XCX",
"CXCXCXNXMXMXpXy [ | | | | %.| | ....&.%... .%.&.&.&.,X=X%X%X%X%X%X#X%X@X}.sXsX9XmXbX9XH B * CXCX",
"CXCXCXNXMXmXdXy [ | | | | |  .&... .&.&.&.&.&.&.&.&.=X%X#X=X#X#X+X+X].iXbX9XbXnXyXm.Z V pXCXCXCX",
"CXCXCXMXMXmXdXy [ } uX8X8XtX&.&.&.-.-.-.-.-.-.-.-.-.G.;X#X#X#X#X=XrXbXyXpXmXpX5XF B 8XMXMXCXCXCX",
"CXCXCXMXmXMXdXy [ } bXnXdXpX&.&.&.-.1.1.1.2.2.2.2.2.2.>X#X#X#X#XaXpXyXMXpX8XG B 2 uXMXMXMXCXCXCX",
"CXCXCXMXmXmXcXy [  .cXbXpXpX1.1.2.2.2.2.2.2.2.2.2.2.2.=X#X#X[.wXtXnXcXwXJ V j z.q pXMXMXMXCXCXCX",
"CXCXCXMXmXmXcXi }  .qX9XwX_.1.2.2.2.6.2.6.6.6.6.6.6.6.G.;XV.S MXnXyX~ Z h k.J.C.q dXMXMXMXCXCXCX",
"CXCXCXMXmXmXbXi  ...<.1.1.1.2.2.2.6.6.8.8.9.8.w.9.6.8.6.9 o N 6X6XF N m A.A.J.J.y bXMXMXmXCXCXCX",
"CXCXCXmXmXmXbXi  .-.1.1.2.2.6.6.6.8.8.8.y.w.y.y.a.a.v = - o . - B l V.J.J.P.P.H.w dXnXmXmXCXCXCX",
"CXCXCXmXmXnXbXp  .X.1.4.6.6.6.6.9.y.y.y.a.a.a.d.>.7 > @ - . # M V.J.K.K.K.Z.C.N.r dXnXmXmXCXCXCX",
"CXCXCXmXnXnXnXp ..1.2.4.6.6.y.y.y.a.a.a.a.i.a.f g g > o @ m Z.I.P.P.K.B.B.B.C.0.r dXnXnXmXCXCXCX",
"CXCXCXmXnXnXnXp <.<.5.5.t.t.y.y.u.p.p.f.f.$.> g , - = 5 ;.J.OXOXP.0.,.N.N.N.0.0.r dXnXnXnXCXCXCX",
"CXCXCXmXnXnXnXp <.<.t.5.9.t.y.y.y.p.f.9.9 N g $ - 8 ;.w.a.e.A.,.,.,.0.0.N.q.q.0.y dXnXmXmXCXCXCX",
"CXCXCXnXnXnXnXs <.5.5.9.t.y.i.p.f.p.b N , * - 4 =.3.;.%.o.O.l.,.,.,.,.0.0.q.e.e.s nXmXnXnXCXCXCX",
"CXCXCXnXbXnXnXs <.5.5.t.t.y.p.p.;.k N > @ % z +.o.o.o.o.O.O.:.,.0.C.e.r.H.L.L.r.s nXmXnXnXCXCXCX",
"CXCXCXnXnXnXnXd 4.5.t.t.y.i.p.M V , * $ 5 z z n o.o.+.+.*.3.u.XX).).(./.L.L.h.d.s mXnXnXnXCXCXCX",
"CXCXCXnXbXbXmXd <.5.t.t.i.9.D B > $ & t z z z n +.;.u.R.Q.R.R.oX).(././.h.h.g.w.s nXnXnXnXCXCXCX",
"CXCXCXnXbXbXmXd 4.t.t.t.,.V , $ & 5 z z +.;.u.E.^.|.~.!.!.Q.Q.W.).(.E.E.h.g.f.w.s mXnXnXnXCXCXCX",
"CXCXCXbXbXbXmXx <.t.t.;.h % 1 z +.9.s.Q.^.|.|.|.|.|.|.^.^.!.Q.Q.).W.E.R.h.f.a.w.s mXnXbXbXCXCXCX",
"CXCXCXbXbXbXmXx 4.7.t.i.t.i.Y.Q.Q.!.!.^.|.|. X X X X|.|.|.Q.Q.Q.~.Q.E.f.T.f.a.6.d MXbXbXbXCXCXCX",
"CXCXCXbXbXbXMXz 4.7.t.i.i.Y.Y.Q.Q.!.^.|.|. X.X.X&X X X|.|.!.!.Q.Q.E.R.R.f.i.y.6.s MXbXbXbXCXCXCX",
"CXCXCXbXcXcXMXx 4.t.i.i.p.Y.T.Q.Q.!.!.|. X X&X4X4X&X X X|.^.!.!.Q.R.f.Y.i.i.7.5.s MXcXbXbXCXCXCX",
"CXCXCXdXcXdXMXx 4.t.t.i.p.Y.Y.Q.Q.!.|.|. X.X4X4X4X&X&X X|.|.!.Q.Q.T.Y.p.i.i.7.5.[ MXdXbXbXCXCXCX",
"CXCXCXdXcXdXNXs 5.t.D.Z.W E T.Q.Q.^.^.|. X X4X4X4X&X X X|.^.!.Q.Q.Y.Y.Y.i.t.7.5.x MXdXcXcXCXCXCX",
"CXCXCXbXcXdXMXx.:X3XM M U Y 3X3XhXkXkXzXzXzXxXxXxXxXzXkXzXkXjXjXjX3XgXgX3X3X2X:Xx.NXdXdXdXCXCXCX",
"CXCXCXdXdXdXNXx.:X2XP I R R lX3XhXkXkXkXlXzXzXzXzXzXzXzXkXjXjXhXjX3XgX3X3X2X2X:Xv.NXdXdXcXCXCXCX",
"CXCXCXdXdXdXNXM.{.:XK L < R 3X3X3XfXgXgXhXhXhXhXhXhXhXhXgXgXgX3X3X3X3X1X1X,X:X{.M.NXdXdXdXCXCXCX",
"CXCXCXdXdXsXmXbXM.v.b.b.b.M.n.n.U.U.U.U.'.'.'.'.'.'.'.U.U.U.U.U.n.M.b.M.b.b.b.M.cXmXpXdXdXCXCXCX",
"CXCXCXdXsXsXcXmXNXNXNXNXNXNXNXNXNXNXNXNXNXNXNXNXNXNXNXNXNXNXNXNXNXNXNXNXNXNXNXNXmXdXdXpXdXCXCXCX",
"CXCXCX9XpXpXpXpXdXpXsXsXsXpXsXsXpXpXdXpXdXpXpXdXdXsXpXsXdXpXpXpXsXsXsXpXsXpXpXpXpXdXpXpX9XCXCXCX",
"CXCXCXZ dXpXpXpXpXpXpXpXpXpXpXpXpXpXpXpXpXpXpXpXpXpXpXpXpXpXpXpXpXpXpXpXpXpXpXpXpXpXpXdXZ CXCXCX",
"CXCXCX. Z yXdXcXdXbXbXbXbXbXnXnXnXnXnXnXmXnXmXmXmXmXnXnXnXnXnXnXbXnXbXbXbXbXbXbXdXdXyXZ . CXCXCX",
"CXCXCXCXCX                                                                            CXCXCXCXCX",
"CXCXCXCXCXCXCXCXCXCXCXCXCXCXCXCXCXCXCXCXCXCXCXCXCXCXCXCXCXCXCXCXCXCXCXCXCXCXCXCXCXCXCXCXCXCXCXCX",
"CXCXCXCXCXCXCXCXCXCXCXCXCXCXCXCXCXCXCXCXCXCXCXCXCXCXCXCXCXCXCXCXCXCXCXCXCXCXCXCXCXCXCXCXCXCXCXCX"
};
