/* XPM */
static char *desktop[] = {
/* columns rows colors chars-per-pixel */
"22 22 215 2",
"   c #000000",
".  c #091B3A",
"X  c #222222",
"o  c #292929",
"O  c #2B2E34",
"+  c #2D3139",
"@  c #3F3F3F",
"#  c #1F334D",
"$  c #1C3353",
"%  c #193156",
"&  c #213048",
"*  c #22324A",
"=  c #343940",
"-  c #0B2E71",
";  c #0B3075",
":  c #183A78",
">  c #3F4043",
",  c #1F417F",
"<  c #2C4363",
"1  c #254575",
"2  c #234779",
"3  c #395275",
"4  c #3B557B",
"5  c #404040",
"6  c #42464A",
"7  c #404C5E",
"8  c #4D5055",
"9  c #525252",
"0  c #5E5E5E",
"q  c #43567B",
"w  c #626263",
"e  c #66686A",
"r  c #666C73",
"t  c #747474",
"y  c #717479",
"u  c #7A7A7A",
"i  c #FF2A2A",
"p  c #579B2B",
"a  c #FFCC00",
"s  c #D1A85F",
"d  c #D9B97D",
"f  c #0F3B8B",
"g  c #103C8D",
"h  c #103D8F",
"j  c #113E8F",
"k  c #103D90",
"l  c #1F4A8A",
"z  c #124092",
"x  c #164394",
"c  c #144396",
"v  c #154495",
"b  c #154698",
"n  c #164799",
"m  c #17489A",
"M  c #17499B",
"N  c #1B4D9D",
"B  c #194C9F",
"V  c #1A4C9E",
"C  c #1B4D9E",
"Z  c #1A4C9F",
"A  c #2D5187",
"S  c #325385",
"D  c #36568B",
"F  c #245595",
"G  c #275897",
"H  c #21569F",
"J  c #25579C",
"K  c #1B4FA2",
"L  c #1C50A2",
"P  c #1D51A2",
"I  c #1C50A3",
"U  c #1F54A3",
"Y  c #1C51A4",
"T  c #1D52A4",
"R  c #1D52A5",
"E  c #1E53A6",
"W  c #1F55A8",
"Q  c #2156A7",
"!  c #2556A4",
"~  c #2E5CA6",
"^  c #2158AA",
"/  c #2159AC",
"(  c #235BAE",
")  c #245DB0",
"_  c #2B60AF",
"`  c #3D65A5",
"'  c #3661A8",
"]  c #3C66AA",
"[  c #3B6BAE",
"{  c #2964B3",
"}  c #2863B7",
"|  c #2A66BA",
" . c #2F67B8",
".. c #2E6AB8",
"X. c #3465B0",
"o. c #3B69B0",
"O. c #386CB7",
"+. c #3E6EB6",
"@. c #306EBC",
"#. c #3D71BD",
"$. c #44689B",
"%. c #466CAD",
"&. c #4C71A5",
"*. c #5B7BA7",
"=. c #5178AD",
"-. c #527FBD",
";. c #2F6EC3",
":. c #2F6FC3",
">. c #3370C2",
",. c #3273C7",
"<. c #3774C5",
"1. c #3A73C1",
"2. c #3274C8",
"3. c #3476CB",
"4. c #3577CC",
"5. c #3578CD",
"6. c #367ACF",
"7. c #377BD0",
"8. c #397FD4",
"9. c #467BC4",
"0. c #7D899A",
"q. c #5382BF",
"w. c #5E82BC",
"e. c #5F83BC",
"r. c #6085BE",
"t. c #6086BF",
"y. c #3A80D5",
"u. c #3A81D6",
"i. c #3F87DD",
"p. c #3F88DD",
"a. c #5482C0",
"s. c #5083C6",
"d. c #5685C5",
"f. c #5487CA",
"g. c #5588CB",
"h. c #5589CC",
"j. c #578ACC",
"k. c #588BCD",
"l. c #5A8BCC",
"z. c #5B8CCC",
"x. c #648AC4",
"c. c #688CC3",
"v. c #658DC8",
"b. c #6790CA",
"n. c #6791CA",
"m. c #6A93CC",
"M. c #6994CF",
"N. c #7698C9",
"B. c #789ACC",
"V. c #6B96D0",
"C. c #6B96D1",
"Z. c #6D9AD6",
"A. c #6E9BD6",
"S. c #6F9CD6",
"D. c #71A0DC",
"F. c #71A1DC",
"G. c #72A1DC",
"H. c #72A1DD",
"J. c #74A4DF",
"K. c #75A7E3",
"L. c #7AADE9",
"P. c #7AAEEA",
"I. c #878787",
"U. c #898989",
"Y. c #8A8A8A",
"T. c #8F8F8F",
"R. c #878C94",
"E. c #939393",
"W. c #939495",
"Q. c #949494",
"!. c #98999A",
"~. c #9A9A9A",
"^. c #9E9E9E",
"/. c #8F98A3",
"(. c #A1A3A5",
"). c #A3A4A6",
"_. c #A4A4A4",
"`. c #A5A5A5",
"'. c #A9A9A9",
"]. c #AEAEAE",
"[. c #B0B0B0",
"{. c #B3B3B3",
"}. c #B4B4B4",
"|. c #B9B9B9",
" X c #BDBDBD",
".X c #BEBEBE",
"XX c #BFBFBF",
"oX c #83A5D7",
"OX c #89ABD8",
"+X c #C2C2C2",
"@X c #C3C3C3",
"#X c #C3C3C4",
"$X c #C4C4C4",
"%X c #C6C6C6",
"&X c #C6C6C7",
"*X c #C7C7C7",
"=X c #C9C9C9",
"-X c #CCCCCC",
";X c #CECECE",
":X c #D1D1D1",
">X c #D3D3D3",
",X c #D6D6D6",
"<X c #D7D7D7",
"1X c #D8D8D8",
"2X c #D9D9D9",
"3X c #DBDBDB",
"4X c #DDDDDD",
"5X c #DEDEDE",
"6X c #E3E3E3",
"7X c #E2E3E4",
"8X c #E6E6E6",
"9X c #EBEBEB",
"0X c #F2F2F2",
"qX c #F8F8F8",
"wX c None",
/* pixels */
"wXwXwXwXwXwXwXwXwXwXwXwXwXwXwXwXwXwXwXwXwXwX",
"wXwX0XqXqXqXqXqXqXqXqXqXqXqXqXqXqXqXqX0XwXwX",
"wX9X&XW.Q.Q.Q.Q.Q.Q.Q.Q.Q.Q.Q.Q.Q.Q.W.&X9XwX",
"wX8X!.: ; ; ; ; ; ; ; ; ; ; ; ; ; ; : !.8XwX",
"wX4X^.; f g g g g g g OXk.k.h.h.f.s.; E.,XwX",
"wX3X`.; g d d k k g k N.k.z.l.l.k.a.q &X[.X ",
"wX3X`.; g s s g k g k %.m.d.d.q.*./.`.E.9 wX",
"wX,X].; g g k k k k g x B.-.=.0.(.`.w o u wX",
"wX>X{.; f z z z v n n n c.&.R.{.t O . ~.:XwX",
"wX:X|.; f ].].M B L P B 4 y Y.5 * D - |.:XwX",
"wX;X.X; z I.Y.R W ^ l 7 0 + * S ` ] - .X:XwX",
"wX-X@X; b M W W H < e = % $.o.+.o.' ; @X-XwX",
"wX=X=X; M P W 1 r > % L { 9.#.O.X.~ ; =X-XwX",
"wX=X;X; M U 3 8 $ G @.5.2.<.1...) ! ; :X*XwX",
"wX@X>X; L A 1 J ..7.8.8.7.2.>.} ( P - >X$XwX",
"wX+X3X; P oXp :.5.u.i.h.u.4.;.| ) E - 3X@XwX",
"wX.X4X; t.i a Z.G.K.L.L.K.G.Z.V.v.e.; 5XXXwX",
"wX.X6X; e.x.n.V.S.G.J.J.G.S.V.m.x.e.- 6X.XwX",
"wX}.7X, ; ; ; ; ; ; ; ; ; ; ; ; ; ; l 6X}.wX",
"wXT.$X7X8X8X8X8X8X8X8X8X8X8X8X8X8X8X5X@XT.wX",
"wX5 I.~.!.!.~.~.~.~.~.~.~.~.~.~.~.~.~.Y.= wX",
"wXwXwX                                wXwXwX"
};
